<?xml version="1.0" standalone="no"?>
<!DOCTYPE svg PUBLIC "-//W3C//DTD SVG 20010904//EN"
 "http://www.w3.org/TR/2001/REC-SVG-20010904/DTD/svg10.dtd">
<svg version="1.0" xmlns="http://www.w3.org/2000/svg"
 width="800.000000pt" height="800.000000pt" viewBox="0 0 800.000000 800.000000"
 preserveAspectRatio="xMidYMid meet">
<metadata>
Created by potrace 1.11, written by Peter Selinger 2001-2013
</metadata>
<g transform="translate(0.000000,800.000000) scale(0.100000,-0.100000)"
fill="#000000" stroke="none">
<path d="M1250 7988 c0 -7 5 -20 10 -28 7 -12 12 -12 22 -2 9 9 9 12 -5 12 -9
0 -17 5 -17 11 0 6 7 8 16 5 8 -3 12 -2 9 4 -9 14 -35 12 -35 -2z"/>
<path d="M1400 7991 c0 -13 37 -24 51 -16 6 4 13 -2 16 -14 3 -12 12 -21 19
-21 18 0 18 -11 1 -35 -10 -13 -16 -15 -21 -6 -4 6 -12 9 -17 6 -5 -4 -9 1 -9
10 0 9 5 13 10 10 6 -3 10 -2 10 4 0 9 -31 31 -44 31 -3 0 -6 -7 -6 -15 0 -22
-14 -18 -25 7 -6 12 -16 24 -23 26 -8 2 -2 -14 13 -36 27 -41 26 -68 -2 -57
-24 9 -94 -27 -87 -45 4 -11 2 -12 -6 -4 -18 18 8 53 34 46 20 -5 20 -5 4 11
-23 23 -101 14 -129 -14 -27 -27 -18 -35 15 -13 15 9 30 13 34 9 4 -4 1 -10
-5 -12 -7 -3 -13 -16 -13 -29 0 -13 -4 -24 -10 -24 -5 0 -10 7 -10 16 0 8 -4
13 -9 9 -6 -3 -19 5 -31 17 -17 19 -18 23 -5 31 8 4 20 5 25 2 15 -9 12 2 -6
19 -8 9 -27 16 -42 16 -19 0 -23 -3 -13 -9 7 -5 10 -14 6 -21 -6 -9 -9 -9 -16
1 -7 11 -9 10 -9 -3 0 -21 -14 -30 -34 -22 -21 8 -20 24 2 40 16 13 16 13 0
14 -10 0 -18 -5 -18 -11 0 -5 -4 -8 -9 -5 -4 3 -6 -7 -4 -22 l3 -27 -12 25
c-11 24 -12 24 -15 3 -2 -12 -11 -24 -19 -27 -17 -7 -18 5 -1 24 7 8 2 7 -15
-3 -34 -21 -54 -22 -62 -2 -3 8 -10 15 -16 15 -6 0 -8 -5 -4 -12 4 -6 3 -8 -4
-5 -5 4 -7 17 -4 30 5 21 5 21 -12 5 -10 -10 -19 -18 -21 -18 -3 0 -2 8 1 18
3 10 0 8 -7 -4 -8 -16 -20 -21 -47 -21 -21 1 -40 6 -44 11 -5 7 -8 4 -8 -6 0
-12 8 -18 23 -19 21 0 21 -1 2 -9 -13 -5 -24 -3 -31 6 -8 10 -13 11 -24 1 -10
-10 -10 -8 -1 10 6 12 11 30 11 40 -1 17 -1 17 -14 0 -12 -16 -20 -17 -53 -8
-48 14 -66 14 -58 1 3 -5 -1 -10 -10 -10 -9 0 -13 5 -10 10 10 16 -15 12 -32
-5 -10 -11 -19 -13 -27 -6 -23 19 -162 -1 -149 -22 4 -7 0 -8 -11 -4 -10 4
-24 7 -32 7 -9 0 -12 5 -8 13 5 9 3 9 -7 -1 -12 -11 -12 -14 1 -22 11 -7 3
-10 -27 -10 -24 0 -43 -5 -43 -11 0 -12 -43 -1 -48 12 -2 4 -15 7 -30 5 -15
-2 -21 -1 -14 1 20 7 13 21 -11 21 -20 0 -23 -5 -20 -27 4 -20 2 -23 -6 -11
-9 13 -12 12 -24 -4 -19 -27 -38 -12 -30 24 3 19 1 30 -5 30 -7 0 -9 -7 -5
-17 5 -12 2 -15 -9 -10 -10 3 -19 0 -22 -9 -3 -8 0 -14 7 -15 7 0 2 -5 -10
-11 l-23 -11 0 -813 0 -813 50 4 c60 4 71 -7 30 -31 -28 -17 -34 -27 -31 -46
0 -5 -6 -8 -14 -8 -8 0 -15 5 -15 12 0 25 -13 -3 -17 -37 l-3 -35 52 0 c33 0
48 4 40 9 -9 6 1 12 34 20 32 8 44 15 35 20 -9 6 -2 10 21 15 18 3 46 13 61
21 15 8 46 17 70 20 23 4 46 10 52 13 13 8 31 12 72 15 18 1 33 5 33 8 0 4 12
10 27 14 15 3 32 14 39 23 6 9 32 18 60 21 42 5 49 9 52 30 2 14 0 21 -6 17
-17 -11 -21 8 -6 29 8 10 14 13 14 7 0 -7 5 -12 11 -12 9 0 4 37 -7 49 -1 2
-29 5 -62 7 -32 2 -71 8 -87 14 -15 6 -44 13 -64 16 -44 7 -53 12 -48 27 2 6
33 12 71 13 38 1 83 10 103 19 20 10 50 19 67 20 17 2 67 7 111 11 44 5 86 8
93 7 6 0 12 3 12 8 0 5 6 9 14 9 8 0 16 4 18 10 2 5 21 12 42 14 21 3 46 12
56 21 12 11 43 16 112 18 53 1 94 5 92 9 -5 8 121 2 135 -6 5 -3 21 -2 36 4
18 7 32 7 39 1 7 -6 17 -6 26 -1 24 15 30 12 30 -17 1 -24 2 -26 11 -10 13 23
29 13 22 -13 -5 -18 -2 -20 20 -16 19 3 24 1 20 -10 -4 -10 3 -14 21 -14 49 0
56 -19 24 -65 -48 -67 -148 -163 -248 -240 -52 -40 -106 -84 -119 -99 -14 -14
-30 -26 -37 -26 -6 0 -15 -7 -18 -16 -3 -8 -11 -12 -16 -9 -6 4 -17 1 -25 -5
-12 -10 -18 -10 -30 0 -10 8 -19 9 -27 3 -7 -6 -32 -9 -55 -8 -27 2 -43 -1
-43 -9 0 -6 -5 -4 -10 4 -7 11 -10 11 -10 2 0 -7 -4 -10 -10 -7 -6 3 -15 3
-22 -1 -11 -7 -80 -14 -159 -17 -25 -1 -35 -5 -32 -13 3 -8 -2 -11 -16 -7 -12
3 -28 0 -36 -7 -8 -6 -30 -10 -50 -7 -34 5 -48 -5 -22 -17 9 -5 9 -7 0 -12 -7
-3 -13 -17 -13 -30 0 -14 -6 -24 -14 -24 -9 0 -14 -9 -13 -20 1 -11 7 -20 14
-20 7 0 10 -6 7 -13 -10 -26 52 -18 80 10 14 14 31 23 38 20 8 -3 5 -6 -7 -7
-18 -1 -19 -1 -2 -11 9 -5 23 -7 30 -3 9 6 9 5 0 -7 -10 -13 -10 -16 2 -16 8
0 15 4 15 8 0 4 10 5 22 1 13 -3 19 -1 15 5 -5 8 42 11 51 3 7 -7 29 -5 41 4
9 7 17 5 26 -7 10 -14 14 -15 18 -5 2 7 8 10 12 5 14 -12 -11 -29 -46 -32 -18
-1 -35 -7 -37 -14 -5 -15 -42 -14 -42 2 0 8 -3 8 -9 -2 -5 -8 -16 -11 -26 -8
-9 4 -14 3 -10 -3 3 -6 2 -10 -4 -10 -5 0 -13 5 -16 10 -4 7 -14 5 -28 -5 -12
-8 -37 -15 -57 -16 -19 0 -29 -3 -22 -6 6 -2 12 -12 12 -21 0 -15 -2 -15 -10
-2 -5 8 -10 11 -10 6 0 -5 -6 -3 -14 3 -10 9 -20 9 -33 3 -35 -19 -149 -34
-278 -37 -72 -2 -139 -4 -150 -4 -11 0 -44 -3 -72 -7 l-53 -5 0 -180 c0 -98 1
-179 3 -179 2 0 86 16 186 36 13 3 31 9 40 13 9 5 28 8 44 6 15 -2 25 0 22 5
-3 4 2 10 10 14 8 3 17 1 20 -5 4 -5 10 -7 15 -4 5 3 12 0 16 -6 8 -13 -15
-31 -29 -22 -5 3 -8 0 -5 -8 6 -17 64 -30 100 -23 14 3 29 1 32 -5 4 -5 14 -8
24 -6 9 1 71 6 137 10 66 4 123 9 127 11 3 2 9 0 12 -5 6 -10 44 -4 61 10 15
11 66 -1 58 -14 -4 -6 0 -8 10 -4 8 3 21 -1 28 -10 10 -11 23 -13 54 -8 22 3
88 9 147 11 98 5 109 3 127 -15 12 -12 24 -21 27 -21 9 0 134 -90 134 -96 0
-3 -4 -2 -10 1 -5 3 -10 1 -10 -5 0 -7 7 -9 16 -6 20 8 77 -32 68 -46 -4 -6
-2 -8 3 -5 6 4 44 -17 85 -47 58 -41 85 -54 125 -60 l52 -7 48 52 c151 162
465 357 773 479 107 42 300 105 354 116 28 5 36 3 36 -8 0 -8 -3 -18 -7 -22
-4 -4 -13 -28 -21 -54 -22 -80 -30 -105 -56 -176 -19 -51 -23 -73 -15 -83 9
-10 6 -15 -11 -21 -19 -7 -20 -9 -6 -21 9 -7 14 -17 11 -21 -10 -16 15 -21 55
-10 32 9 40 15 40 34 0 13 7 29 15 36 8 7 15 18 15 24 0 7 9 22 20 33 19 21
81 145 94 188 3 11 2 26 -3 33 -8 14 -41 6 -41 -10 0 -5 -11 -21 -25 -36 -28
-30 -29 -35 -14 -63 8 -15 6 -25 -8 -43 -10 -12 -24 -21 -31 -18 -22 7 -16 41
36 209 11 36 22 53 36 57 32 9 34 8 30 -16 -5 -27 20 -63 35 -53 6 3 11 24 11
45 0 35 3 39 33 49 70 21 97 23 97 7 0 -8 -5 -18 -10 -21 -6 -3 -8 -16 -5 -28
3 -12 -1 -42 -10 -66 -8 -24 -15 -63 -15 -86 0 -24 -5 -45 -12 -47 -7 -3 -8
-10 -3 -17 5 -9 14 2 27 35 11 27 24 57 29 66 5 10 9 23 9 30 0 25 81 168 96
168 18 0 18 -14 0 -29 -8 -7 -22 -37 -32 -67 -9 -30 -21 -54 -25 -54 -5 0 -9
-13 -9 -28 0 -16 -11 -51 -25 -78 -14 -27 -25 -54 -25 -60 0 -6 -7 -17 -15
-24 -21 -17 -19 -37 5 -45 26 -8 26 -25 0 -32 -31 -8 -20 -37 14 -41 19 -3 32
2 38 13 5 9 20 20 33 25 17 7 21 14 18 34 -4 20 -2 24 14 20 23 -6 103 96 103
133 0 13 7 38 16 55 9 17 14 39 11 49 -3 10 1 23 9 30 8 6 14 15 14 20 0 12
51 91 65 101 5 4 34 8 63 8 58 0 59 -2 37 -65 -8 -22 -15 -47 -15 -56 0 -9
-11 -33 -25 -54 -14 -20 -29 -51 -32 -69 -3 -17 -12 -43 -19 -58 -16 -31 -19
-114 -4 -123 7 -4 7 -13 0 -26 -8 -15 -7 -21 4 -25 26 -10 50 1 57 26 7 25 7
25 8 2 1 -35 25 -21 29 16 2 18 7 32 11 32 5 0 32 32 60 70 46 64 51 74 45
109 -5 32 -1 46 31 96 31 48 36 64 32 96 -3 25 -1 39 8 42 34 14 694 -21 940
-49 197 -22 453 -69 510 -94 11 -5 31 -11 45 -14 67 -13 104 -26 111 -38 6 -8
3 -14 -8 -16 -8 -2 -19 2 -23 8 -10 16 -38 6 -47 -15 -3 -9 4 -29 15 -45 12
-15 24 -41 28 -56 9 -33 84 -132 102 -133 6 -1 12 -10 12 -21 0 -21 16 -26 39
-11 12 8 13 12 1 25 -15 19 -14 21 19 31 20 6 23 4 18 -9 -7 -16 11 -21 60
-17 12 1 24 -3 28 -9 3 -5 15 -10 26 -10 12 0 19 -7 19 -20 0 -10 9 -24 21
-30 24 -13 38 -5 21 12 -17 17 -15 38 3 38 8 0 15 -9 15 -19 0 -10 7 -22 16
-25 8 -3 14 -14 12 -23 -3 -19 40 -73 59 -73 7 0 13 -7 13 -15 0 -9 -6 -12
-16 -8 -10 4 -22 0 -28 -8 -6 -9 -19 -18 -29 -22 -19 -7 -41 -53 -31 -68 3 -5
12 -9 19 -9 11 0 13 8 8 30 -5 25 -3 29 11 24 9 -3 16 -17 16 -29 0 -13 4 -26
9 -29 4 -3 11 -19 14 -36 4 -16 11 -30 17 -30 12 0 2 53 -12 58 -10 4 -11 52
0 52 4 0 19 -16 35 -35 30 -37 57 -38 57 -1 0 17 -2 18 -10 6 -8 -12 -10 -11
-10 8 0 15 6 22 19 22 28 0 36 18 17 39 -9 10 -16 23 -16 30 0 6 -11 24 -25
39 -30 32 -31 42 -5 49 11 3 20 7 20 9 0 1 -15 19 -34 40 -26 28 -38 35 -55
29 -23 -7 -28 4 -10 22 8 8 8 13 0 17 -6 4 -11 1 -11 -7 0 -16 -24 -30 -34
-20 -3 3 1 12 9 20 21 20 19 30 -13 61 -30 30 -47 62 -32 62 16 0 183 -92 257
-141 39 -27 100 -72 135 -100 87 -72 268 -251 268 -266 0 -19 6 -17 84 28 75
43 98 43 104 1 3 -18 9 -20 55 -16 29 3 61 6 72 8 11 2 23 -2 27 -7 4 -7 11
-7 20 1 17 14 78 13 78 -2 0 -6 5 -3 11 7 11 18 59 24 59 6 0 -6 12 -8 29 -6
17 3 32 0 35 -6 5 -9 7 -9 12 0 3 7 22 10 51 7 26 -3 103 6 177 20 72 14 158
27 191 31 33 3 79 8 102 11 89 13 123 10 123 -8 0 -21 11 -23 29 -5 10 10 11
9 6 -4 -3 -9 -23 -20 -43 -26 l-37 -10 32 -2 c17 0 38 6 46 14 8 8 17 11 21 8
9 -9 56 -13 56 -5 0 4 15 8 33 9 17 1 55 4 82 6 28 3 65 5 83 6 l32 1 0 495
c0 315 -4 495 -10 495 -6 0 -6 9 0 26 6 14 10 150 10 313 l0 288 -41 -7 c-22
-4 -58 -6 -79 -5 -22 2 -42 0 -44 -4 -3 -4 -20 -5 -38 -3 -18 2 -54 4 -80 5
-25 1 -44 6 -41 10 3 5 -4 6 -16 2 -11 -3 -26 -3 -33 2 -13 8 -43 10 -130 12
-39 1 -48 4 -48 19 0 12 -3 13 -8 5 -9 -14 -52 -6 -52 9 0 6 -14 8 -30 6 -23
-3 -30 -1 -26 9 4 10 1 10 -15 0 -16 -10 -21 -9 -28 1 -4 8 -14 13 -22 12 -27
-4 -38 0 -42 18 -4 15 -5 15 -6 1 0 -9 -8 -19 -15 -22 -10 -4 -13 -1 -9 8 3 8
-2 18 -11 21 -24 9 -19 23 6 16 13 -3 19 -1 15 5 -4 5 5 16 18 23 14 7 25 17
25 22 0 5 9 4 20 -2 16 -8 20 -8 18 2 -2 7 6 13 19 13 12 0 25 4 29 8 4 4 20
7 35 7 15 0 29 5 31 10 2 6 15 13 29 15 15 3 42 12 61 20 20 8 38 12 41 9 5
-5 160 21 212 36 69 20 171 44 190 45 56 1 65 12 65 81 l0 66 -32 -6 c-18 -3
-49 -10 -68 -15 -85 -25 -187 -51 -215 -55 -16 -3 -41 -7 -55 -10 -14 -3 -38
-9 -55 -12 -16 -3 -34 -9 -40 -12 -5 -4 -16 -8 -22 -9 -40 -9 -125 -34 -198
-58 -176 -59 -264 -84 -298 -87 -20 -1 -37 -6 -37 -10 0 -10 -50 1 -67 15 -9
6 -18 5 -29 -3 -13 -11 -16 -10 -21 8 -3 12 -9 19 -14 16 -5 -3 -9 0 -9 6 0 8
-9 10 -25 6 -22 -6 -25 -3 -24 21 0 18 3 23 7 13 10 -22 33 -23 38 -3 3 10 19
26 35 35 16 10 27 13 24 8 -3 -5 7 -7 22 -5 16 1 27 8 26 14 -2 6 10 11 27 11
17 0 30 5 30 11 0 6 9 8 20 4 13 -4 22 -1 26 9 3 8 29 20 60 26 29 6 57 16 60
22 7 12 -18 31 -26 20 -3 -4 -12 -7 -20 -7 -8 1 -20 -2 -26 -7 -6 -4 -28 -7
-49 -6 -34 1 -36 3 -19 15 10 7 21 13 26 13 4 0 8 8 8 18 -1 15 -2 15 -15 -2
-12 -16 -19 -17 -37 -8 l-23 11 24 0 c24 1 24 1 5 16 -23 17 -6 20 43 6 27 -8
31 -7 26 7 -4 10 -2 13 5 8 7 -4 12 -2 12 5 0 7 4 8 13 2 6 -5 21 -8 32 -7 32
4 78 15 87 20 4 3 17 0 28 -6 16 -9 26 -8 43 2 12 8 40 15 62 17 22 1 41 6 43
10 1 4 14 6 27 3 16 -3 25 0 25 9 0 8 6 5 15 -7 8 -11 15 -14 15 -6 0 6 11 12
24 12 13 0 29 7 36 15 7 8 19 15 27 15 9 0 13 -6 9 -15 -7 -19 -1 -19 18 0 8
8 28 17 45 18 17 2 34 7 38 10 9 10 51 9 57 -1 3 -5 28 -7 56 -6 34 2 50 -1
50 -9 0 -7 5 -4 11 6 6 9 14 15 20 12 5 -4 9 -2 9 2 0 11 45 11 56 1 12 -13
34 -9 32 5 -2 6 3 11 9 9 10 -1 13 73 13 348 l0 350 -1445 0 c-795 0 -1445 -2
-1445 -4 0 -2 20 -16 44 -30 70 -41 194 -137 291 -224 227 -206 602 -653 886
-1059 160 -227 251 -335 420 -495 150 -143 187 -191 219 -284 44 -127 31 -321
-30 -448 -37 -77 -118 -175 -205 -246 -87 -72 -97 -74 -42 -7 138 170 207 375
178 532 -18 101 -71 192 -164 286 -118 120 -179 192 -397 474 -107 137 -228
290 -270 339 -546 651 -1059 973 -1710 1072 -160 25 -509 25 -675 0 -240 -35
-444 -97 -628 -191 -213 -108 -361 -218 -552 -409 -145 -146 -262 -290 -465
-576 -307 -432 -370 -511 -537 -677 -189 -188 -228 -262 -227 -428 0 -111 16
-165 79 -270 20 -32 34 -60 31 -62 -7 -8 -151 114 -212 179 -158 170 -177 292
-68 444 91 127 150 190 263 279 172 134 250 225 443 513 94 141 205 302 247
357 313 414 616 686 973 875 l113 60 -57 0 c-36 0 -58 -4 -61 -12 -3 -10 -8
-9 -22 2 -16 14 -17 13 -11 -6 5 -17 2 -23 -16 -28 -32 -8 -38 -8 -38 4 0 6 9
10 20 10 11 0 20 5 20 10 0 19 -21 10 -51 -22 -17 -18 -27 -26 -24 -17 4 10 0
19 -9 22 -15 6 -21 -4 -17 -27 2 -10 -19 -26 -34 -26 -5 0 -3 4 5 10 17 10 14
15 -17 24 -19 6 -22 4 -16 -10 5 -13 3 -16 -10 -11 -9 3 -17 2 -17 -3 0 -6 -5
-10 -11 -10 -6 0 -9 9 -6 19 3 12 -1 22 -10 25 -21 9 -23 8 -17 -9 4 -9 0 -15
-9 -15 -9 0 -24 -3 -34 -7 -12 -4 -10 0 7 15 28 24 24 27 -14 12 -20 -7 -27
-6 -35 8 -6 10 -11 12 -11 5 0 -7 -7 -13 -15 -13 -8 0 -15 -4 -15 -9 0 -14
-25 -20 -41 -10 -12 8 -12 11 1 19 11 8 7 9 -15 4 -16 -4 -33 -11 -36 -17 -4
-5 -10 -4 -14 3 -6 9 -13 6 -26 -11 l-19 -24 0 28 c0 15 -4 27 -9 27 -6 0 -8
-9 -6 -20 2 -11 0 -20 -6 -20 -5 0 -9 5 -9 11 0 7 -10 9 -25 5 -18 -5 -28 -1
-37 14 -17 27 -23 25 -25 -7 -1 -19 1 -22 8 -12 5 8 9 9 9 4 0 -6 -10 -19 -22
-29 -18 -15 -20 -16 -15 -2 4 10 1 16 -8 16 -8 0 -15 5 -15 12 0 6 -3 8 -6 5
-13 -13 -44 14 -44 38 0 14 -4 25 -10 25 -14 0 -13 -26 2 -50 10 -16 10 -22
-1 -32 -11 -10 -14 -10 -18 0 -3 6 -9 12 -14 12 -6 0 -8 -3 -6 -7 3 -5 -9 -8
-26 -8 -26 0 -32 4 -30 20 1 11 0 14 -3 8 -9 -21 -27 -15 -21 7 6 24 -8 27
-17 4 -4 -10 1 -22 11 -30 16 -12 16 -15 3 -24 -8 -6 -25 -8 -37 -5 -12 3 -24
-1 -27 -8 -3 -6 -3 -1 0 12 6 23 6 23 -17 7 -29 -20 -40 -21 -33 -2 9 22 46
27 74 9 l25 -16 -18 26 c-10 15 -15 27 -11 27 4 0 1 7 -6 15 -10 12 -9 15 6
16 27 2 27 2 52 -6 15 -4 22 -2 22 8 0 10 -15 14 -60 14 -60 0 -61 0 -46 -22
8 -13 12 -25 9 -29 -12 -12 -22 -6 -26 17 -4 20 -4 19 -6 -4 -1 -30 -20 -42
-42 -28 -11 8 -9 9 6 7 16 -2 20 3 20 26 0 36 -21 46 -30 15 -7 -22 -8 -22
-19 -3 -11 20 -46 22 -46 3 0 -6 -4 -8 -9 -5 -5 3 -8 -2 -7 -11 0 -9 -5 -18
-13 -21 -8 -3 -11 0 -7 7 4 7 0 11 -12 11 -11 0 -22 -9 -25 -20 -6 -23 10 -37
25 -22 8 8 17 8 31 1 18 -10 18 -12 -9 -25 -17 -9 -31 -11 -37 -5 -5 5 -17 7
-26 4 -12 -4 -13 -3 -3 5 11 7 8 11 -12 16 -14 3 -26 11 -26 16 0 14 17 12 23
-2 3 -7 6 0 6 15 1 16 -2 27 -6 25 -5 -2 -20 -10 -35 -17 -23 -12 -30 -12 -43
-1 -11 9 -19 10 -26 3 -8 -8 -2 -13 20 -18 42 -9 48 -23 16 -35 -18 -7 -32 -7
-43 1 -16 10 -16 10 1 5 9 -3 17 -1 17 3 0 14 -23 19 -45 10 -30 -11 -107 -11
-100 1 3 6 1 10 -4 10 -6 0 -11 -5 -11 -12 0 -6 -10 0 -23 13 -12 13 -22 33
-22 44 0 16 -8 21 -42 23 -24 2 -43 -1 -43 -7z m1228 -60 c11 -6 10 -10 -4
-15 -9 -3 -19 -4 -22 -1 -3 3 1 5 9 5 11 0 11 2 -1 10 -8 5 -10 10 -5 10 6 0
16 -4 23 -9z m-686 -15 c6 4 9 1 7 -5 -3 -7 -8 -12 -12 -12 -4 1 -14 1 -22 1
-13 0 -14 2 -3 14 7 8 15 10 16 5 2 -5 8 -6 14 -3z m338 -6 c0 -5 -4 -10 -10
-10 -5 0 -10 5 -10 10 0 6 5 10 10 10 6 0 10 -4 10 -10z m-844 -38 c-4 -3 -11
0 -16 8 -15 24 -11 33 6 15 9 -9 13 -19 10 -23z m1064 28 c0 -5 -5 -10 -11
-10 -5 0 -7 5 -4 10 3 6 8 10 11 10 2 0 4 -4 4 -10z m70 -4 c0 -9 -8 -12 -26
-8 -19 3 -22 7 -12 13 20 13 38 11 38 -5z m-1021 -41 c12 -3 19 -11 16 -16 -4
-5 -15 0 -27 10 -11 11 -27 17 -35 14 -8 -3 -13 0 -11 8 5 24 23 29 30 9 4
-10 16 -21 27 -25z m904 38 c-7 -2 -21 -2 -30 0 -10 3 -4 5 12 5 17 0 24 -2
18 -5z m-2023 -13 c0 -5 -2 -10 -4 -10 -3 0 -8 5 -11 10 -3 6 -1 10 4 10 6 0
11 -4 11 -10z m1718 -35 c-3 -3 -9 2 -12 12 -6 14 -5 15 5 6 7 -7 10 -15 7
-18z m-678 5 c0 -5 -4 -10 -10 -10 -5 0 -10 5 -10 10 0 6 5 10 10 10 6 0 10
-4 10 -10z m205 0 c3 -5 1 -10 -4 -10 -6 0 -11 5 -11 10 0 6 2 10 4 10 3 0 8
-4 11 -10z m-645 -4 c0 -2 -7 -6 -15 -10 -8 -3 -15 -1 -15 4 0 6 7 10 15 10 8
0 15 -2 15 -4z m390 -11 c-7 -9 -15 -13 -19 -10 -3 3 1 10 9 15 21 14 24 12
10 -5z m-166 -10 c-4 -8 -11 -15 -16 -15 -6 0 -5 6 2 15 7 8 14 15 16 15 2 0
1 -7 -2 -15z m236 -5 c-7 -4 -9 -13 -6 -19 4 -6 0 -11 -9 -11 -9 0 -14 3 -12
8 2 4 7 15 10 25 4 10 12 15 18 11 8 -5 8 -9 -1 -14z m-1365 0 c-3 -5 -11 -10
-16 -10 -6 0 -7 5 -4 10 3 6 11 10 16 10 6 0 7 -4 4 -10z m1519 1 c4 -5 -3 -7
-14 -4 -23 6 -26 13 -6 13 8 0 17 -4 20 -9z m-64 -20 c0 -6 -4 -13 -10 -16 -5
-3 -10 1 -10 9 0 9 5 16 10 16 6 0 10 -4 10 -9z m2030 -203 c49 -33 71 -85 77
-178 l6 -79 152 -156 c86 -87 161 -155 171 -155 10 0 59 31 108 68 50 38 119
87 153 110 81 55 97 77 122 174 42 161 82 218 154 218 46 0 93 -39 109 -91 9
-32 9 -54 -2 -107 -7 -37 -15 -73 -18 -81 -4 -9 1 -12 15 -7 44 14 123 -40
149 -101 30 -70 6 -164 -55 -216 -26 -22 -42 -27 -84 -27 -29 0 -70 9 -93 19
l-41 19 -142 -82 c-78 -46 -146 -87 -151 -92 -7 -7 14 -30 58 -67 37 -31 91
-81 120 -111 60 -63 88 -72 190 -63 88 9 144 -7 182 -50 37 -42 41 -107 10
-158 -23 -37 -52 -52 -130 -63 -47 -7 -55 -11 -52 -27 19 -138 -42 -235 -149
-235 -97 0 -150 67 -157 196 l-4 82 -103 116 c-56 63 -126 135 -155 160 l-53
45 -91 -65 c-50 -36 -118 -82 -151 -102 -104 -65 -129 -96 -154 -192 -30 -115
-48 -156 -88 -190 -58 -52 -125 -32 -164 46 -23 49 -22 66 8 192 4 19 1 22
-21 22 -60 0 -127 60 -146 130 -20 75 24 170 94 204 33 16 46 18 85 9 25 -6
60 -16 77 -23 29 -13 37 -10 161 59 200 109 194 88 62 206 -162 145 -146 137
-265 130 -113 -7 -151 3 -193 48 -33 37 -39 111 -12 154 28 45 59 62 127 71
l59 7 -3 60 c-4 73 17 134 60 170 40 34 120 35 168 3z m3310 -472 c0 -3 -4 -8
-10 -11 -5 -3 -10 -1 -10 4 0 6 5 11 10 11 6 0 10 -2 10 -4z m67 -22 c-3 -3
-12 -4 -19 -1 -8 3 -5 6 6 6 11 1 17 -2 13 -5z m-5502 -14 c3 -5 2 -10 -4 -10
-5 0 -13 5 -16 10 -3 6 -2 10 4 10 5 0 13 -4 16 -10z m185 -16 c0 -8 5 -14 10
-14 6 0 10 5 10 10 0 6 7 10 15 10 8 0 15 5 15 10 0 6 7 10 15 10 8 0 15 -3
15 -7 0 -5 26 -8 58 -8 56 0 89 -15 77 -35 -3 -5 0 -10 7 -11 7 0 4 -4 -7 -8
-11 -5 -25 -4 -32 1 -9 7 -13 7 -13 -2 0 -8 -8 -10 -27 -5 -16 4 -36 7 -45 7
-9 0 -20 8 -23 18 -5 16 -10 17 -30 8 -14 -6 -21 -16 -18 -21 5 -8 8 -7 11 1
2 7 8 12 14 12 6 0 7 -7 4 -15 -4 -10 2 -19 17 -25 l22 -9 -22 0 c-12 -1 -24
5 -26 12 -4 9 -8 8 -16 -3 -8 -11 -7 -16 4 -18 25 -6 17 -17 -20 -28 -23 -7
-35 -8 -35 -1 0 6 -3 7 -7 3 -4 -3 -13 4 -20 16 l-12 23 -1 -22 c0 -15 -6 -23
-17 -23 -15 0 -16 2 -3 10 10 6 11 10 3 10 -24 0 -13 18 16 28 17 6 29 17 28
29 0 29 14 63 24 57 5 -3 9 -12 9 -20z m-225 -4 c-3 -5 -14 -10 -23 -9 -14 0
-13 2 3 9 27 11 27 11 20 0z m475 0 c0 -5 -2 -10 -4 -10 -3 0 -8 5 -11 10 -3
6 -1 10 4 10 6 0 11 -4 11 -10z m-469 -24 c21 4 22 3 4 -5 -11 -5 -15 -10 -10
-11 6 0 3 -6 -6 -13 -9 -7 -16 -16 -16 -22 0 -5 7 -15 16 -22 14 -11 14 -12 1
-12 -20 1 -59 17 -42 18 21 1 3 21 -19 21 -16 0 -19 -4 -14 -21 7 -20 6 -20
-23 -5 -28 14 -42 34 -42 58 0 6 6 6 15 -2 12 -10 15 -9 15 5 0 14 6 16 30 13
17 -3 30 -1 30 4 0 5 8 4 18 -1 10 -6 30 -8 43 -5z m-246 -6 c3 -5 2 -10 -4
-10 -5 0 -13 5 -16 10 -3 6 -2 10 4 10 5 0 13 -4 16 -10z m42 -11 c2 -17 -1
-18 -13 -8 -13 11 -10 20 11 29 1 0 1 -9 2 -21z m33 7 c0 -3 -4 -8 -10 -11 -5
-3 -10 -1 -10 4 0 6 5 11 10 11 6 0 10 -2 10 -4z m6110 -136 c0 -5 -8 -10 -17
-10 -15 0 -16 2 -3 10 19 12 20 12 20 0z m-5644 -127 c-2 -9 -8 -19 -14 -21
-6 -2 -8 5 -5 17 6 25 22 28 19 4z m38 2 c-4 -8 -11 -15 -16 -15 -6 0 -5 6 2
15 7 8 14 15 16 15 2 0 1 -7 -2 -15z m5385 1 c9 -10 8 -15 -2 -19 -8 -3 -13 3
-14 14 -2 23 1 24 16 5z m-6546 -413 c-7 -2 -21 -2 -30 0 -10 3 -4 5 12 5 17
0 24 -2 18 -5z m-507 -228 c-30 -16 -43 -14 -31 4 3 6 18 11 33 11 l27 0 -29
-15z m7714 -54 c0 12 2 12 9 0 5 -7 14 -10 21 -6 6 4 27 8 46 9 24 1 34 -3 34
-14 0 -12 2 -12 9 -1 6 9 11 10 15 2 4 -6 -1 -14 -11 -17 -10 -3 -25 -9 -34
-14 -9 -5 -25 -7 -35 -6 -11 2 -24 -1 -31 -6 -7 -5 -17 -7 -23 -3 -5 3 -10 2
-10 -3 0 -5 -14 -9 -32 -10 -17 0 -34 -5 -37 -9 -7 -10 -19 -9 -44 1 -10 5
-34 1 -58 -8 -22 -9 -45 -14 -50 -11 -5 4 -15 3 -21 -2 -7 -4 -40 -9 -73 -10
-33 -1 -61 -2 -62 -2 -2 -1 -5 -1 -8 -2 -2 0 -19 -5 -37 -11 -44 -13 -88 -17
-88 -6 0 4 -4 8 -10 8 -5 0 -10 -7 -10 -15 0 -8 -6 -15 -12 -16 -7 -1 -29 -2
-48 -4 -19 -2 -36 -8 -38 -15 -3 -9 -7 -9 -13 1 -7 12 -12 12 -30 1 -14 -9
-19 -9 -14 -2 5 9 2 9 -11 3 -11 -5 -35 -8 -55 -8 -30 1 -35 -2 -34 -19 1 -11
7 -22 13 -24 13 -4 17 -32 4 -32 -12 0 -33 40 -27 50 4 6 2 10 -2 10 -11 0
-77 139 -69 147 3 3 17 6 31 6 14 0 25 2 25 6 0 4 23 7 50 8 28 2 50 -2 50 -8
0 -6 8 -5 21 2 12 6 34 8 50 5 15 -3 31 -1 34 4 4 6 15 4 27 -5 19 -13 23 -12
32 1 9 12 17 13 38 5 15 -6 30 -6 32 -2 16 25 231 14 249 -12 4 -7 5 0 2 14
-6 23 -3 27 19 27 14 0 23 -5 20 -10 -3 -5 -13 -7 -21 -4 -8 4 -11 1 -7 -5 3
-6 15 -9 25 -6 11 3 19 1 19 -4 0 -10 32 1 41 14 4 5 15 4 28 -2 16 -9 26 -9
39 -1 16 11 16 11 0 6 -10 -3 -18 -1 -18 5 0 7 12 8 31 4 25 -6 30 -4 24 6 -5
8 1 5 13 -5 17 -14 22 -16 22 -5z m-7195 -126 c-1 -14 -7 -31 -14 -38 -10 -9
-11 -6 -5 17 6 23 4 27 -7 21 -12 -8 -12 -6 0 8 19 24 27 21 26 -8z m-19 -72
c1 -7 -4 -13 -12 -13 -9 0 -14 11 -14 33 1 29 2 30 12 12 7 -11 13 -26 14 -32z
m6480 -8 c-3 -8 0 -15 6 -15 6 0 9 -2 6 -5 -3 -3 -12 -3 -21 1 -13 5 -14 9 -4
20 16 18 20 17 13 -1z m-6156 -25 c0 -5 -5 -10 -11 -10 -5 0 -7 5 -4 10 3 6 8
10 11 10 2 0 4 -4 4 -10z m6185 -29 c-3 -6 -11 -11 -17 -11 -6 0 -6 6 2 15 14
17 26 13 15 -4z m-1587 -223 c-2 -6 -10 -14 -16 -16 -7 -2 -10 2 -6 12 7 18
28 22 22 4z m-1858 -63 c-7 -9 -15 -13 -17 -11 -7 7 7 26 19 26 6 0 6 -6 -2
-15z m1957 9 c-3 -3 -12 -4 -19 -1 -8 3 -5 6 6 6 11 1 17 -2 13 -5z m-2037
-59 c0 -2 -9 -9 -20 -15 -16 -9 -20 -8 -20 5 0 8 9 15 20 15 11 0 20 -2 20 -5z
m1857 -1 c-3 -3 -12 -4 -19 -1 -8 3 -5 6 6 6 11 1 17 -2 13 -5z m-4941 -40
c11 4 12 2 1 -14 -6 -11 -19 -21 -27 -22 -95 -9 -112 -5 -79 21 33 25 51 30
72 19 10 -5 25 -7 33 -4z m2431 -70 c-3 -3 -12 -4 -19 -1 -8 3 -5 6 6 6 11 1
17 -2 13 -5z m2941 -62 c2 -7 -2 -10 -12 -6 -9 3 -16 11 -16 16 0 13 23 5 28
-10z"/>
<path d="M1350 7030 c0 -5 5 -10 10 -10 6 0 10 5 10 10 0 6 -4 10 -10 10 -5 0
-10 -4 -10 -10z"/>
<path d="M1398 7023 c7 -3 16 -2 19 1 4 3 -2 6 -13 5 -11 0 -14 -3 -6 -6z"/>
<path d="M1510 7990 c0 -5 7 -7 15 -4 8 4 15 8 15 10 0 2 -7 4 -15 4 -8 0 -15
-4 -15 -10z"/>
<path d="M1640 7990 c0 -5 5 -10 10 -10 6 0 10 5 10 10 0 6 -4 10 -10 10 -5 0
-10 -4 -10 -10z"/>
<path d="M1800 7990 c0 -5 7 -10 16 -10 8 0 12 5 9 10 -3 6 -10 10 -16 10 -5
0 -9 -4 -9 -10z"/>
<path d="M2308 7993 c6 -2 18 -2 25 0 6 3 1 5 -13 5 -14 0 -19 -2 -12 -5z"/>
<path d="M1721 7974 c0 -11 3 -14 6 -6 3 7 2 16 -1 19 -3 4 -6 -2 -5 -13z"/>
<path d="M2250 7980 c0 -6 7 -13 15 -17 24 -9 27 1 5 15 -13 8 -20 8 -20 2z"/>
<path d="M1135 7970 c3 -5 8 -10 11 -10 2 0 4 5 4 10 0 6 -5 10 -11 10 -5 0
-7 -4 -4 -10z"/>
<path d="M1211 7964 c0 -11 3 -14 6 -6 3 7 2 16 -1 19 -3 4 -6 -2 -5 -13z"/>
<path d="M1310 7949 c11 -38 9 -35 40 -43 25 -6 25 -6 3 5 -13 7 -24 18 -24
26 -1 7 -2 18 -3 25 0 6 -6 13 -13 15 -9 3 -10 -4 -3 -28z"/>
<path d="M1600 7969 c0 -5 5 -7 10 -4 6 3 10 8 10 11 0 2 -4 4 -10 4 -5 0 -10
-5 -10 -11z"/>
<path d="M1510 7960 c0 -5 5 -10 10 -10 6 0 10 5 10 10 0 6 -4 10 -10 10 -5 0
-10 -4 -10 -10z"/>
<path d="M2360 7955 c0 -8 2 -15 4 -15 2 0 6 7 10 15 3 8 1 15 -4 15 -6 0 -10
-7 -10 -15z"/>
<path d="M2155 7950 c3 -5 8 -10 11 -10 2 0 4 5 4 10 0 6 -5 10 -11 10 -5 0
-7 -4 -4 -10z"/>
<path d="M1582 7943 c-6 -3 -10 -9 -6 -14 7 -12 44 -12 44 0 0 11 -21 19 -38
14z"/>
<path d="M50 7920 c0 -5 5 -10 10 -10 6 0 10 5 10 10 0 6 -4 10 -10 10 -5 0
-10 -4 -10 -10z"/>
<path d="M968 7913 c7 -3 16 -2 19 1 4 3 -2 6 -13 5 -11 0 -14 -3 -6 -6z"/>
<path d="M108 7903 c7 -3 16 -2 19 1 4 3 -2 6 -13 5 -11 0 -14 -3 -6 -6z"/>
<path d="M218 7883 c7 -3 16 -2 19 1 4 3 -2 6 -13 5 -11 0 -14 -3 -6 -6z"/>
<path d="M7235 7140 c-22 -4 -44 -5 -49 -3 -5 3 -7 0 -4 -8 5 -16 44 -18 73
-4 11 5 23 8 28 7 4 -1 7 3 7 8 0 6 -3 9 -7 9 -5 -1 -26 -5 -48 -9z"/>
<path d="M550 5981 c0 -5 -10 -7 -22 -5 -21 4 -21 4 -3 -4 11 -5 23 -20 26
-33 6 -20 7 -17 8 14 1 20 -1 37 -4 37 -3 0 -5 -4 -5 -9z"/>
<path d="M510 5920 c0 -5 5 -10 11 -10 5 0 7 5 4 10 -3 6 -8 10 -11 10 -2 0
-4 -4 -4 -10z"/>
<path d="M480 5860 l-25 -8 28 -1 c15 -1 27 4 27 9 0 6 -1 10 -2 9 -2 -1 -14
-5 -28 -9z"/>
<path d="M352 5848 c-7 -7 -12 -19 -12 -27 0 -14 15 -7 15 7 0 4 4 13 8 20 10
15 5 16 -11 0z"/>
<path d="M410 5856 c0 -2 7 -6 15 -10 8 -3 15 -1 15 4 0 6 -7 10 -15 10 -8 0
-15 -2 -15 -4z"/>
<path d="M671 5844 c0 -11 3 -14 6 -6 3 7 2 16 -1 19 -3 4 -6 -2 -5 -13z"/>
<path d="M50 5805 c-11 -13 -10 -14 4 -9 9 3 16 10 16 15 0 13 -6 11 -20 -6z"/>
<path d="M98 5803 c7 -3 16 -2 19 1 4 3 -2 6 -13 5 -11 0 -14 -3 -6 -6z"/>
<path d="M2960 5484 c0 -8 5 -12 10 -9 6 4 8 11 5 16 -9 14 -15 11 -15 -7z"/>
<path d="M3101 5404 c-17 -36 -31 -70 -31 -74 0 -5 -11 -17 -25 -28 -20 -16
-35 -52 -22 -52 10 0 66 32 75 43 12 15 46 166 39 173 -2 3 -19 -25 -36 -62z"/>
<path d="M5599 5327 c-9 -12 -19 -39 -23 -59 -6 -31 -3 -39 15 -52 18 -12 20
-18 10 -30 -16 -19 3 -31 41 -27 27 2 46 -13 28 -24 -5 -3 -10 -19 -10 -35 0
-16 -4 -32 -10 -35 -20 -12 -9 -23 17 -16 23 6 28 15 39 71 14 66 12 82 -8 62
-7 -7 -16 -12 -20 -12 -12 0 -10 38 2 45 6 4 8 11 4 16 -3 5 -1 16 6 24 7 8 7
15 1 19 -6 4 -8 13 -4 22 7 20 -25 54 -51 54 -12 0 -28 -11 -37 -23z m61 -82
c0 -8 -9 -15 -20 -15 -25 0 -26 17 -2 23 9 3 18 5 20 6 1 0 2 -6 2 -14z"/>
<path d="M3155 5301 c-8 -15 3 -31 21 -31 9 0 14 7 12 17 -4 20 -24 28 -33 14z"/>
<path d="M3540 5290 c0 -19 3 -21 12 -12 9 9 9 15 0 24 -9 9 -12 7 -12 -12z"/>
<path d="M3477 5266 c-4 -10 -5 -21 -2 -24 9 -9 17 6 13 25 -3 17 -4 17 -11
-1z"/>
<path d="M5724 5267 c-6 -17 12 -67 26 -67 12 0 24 45 16 65 -7 19 -35 20 -42
2z"/>
<path d="M3136 5234 c-4 -11 -1 -14 11 -12 9 2 18 9 21 16 6 18 -25 15 -32 -4z"/>
<path d="M2760 5224 c0 -8 5 -12 10 -9 6 3 10 10 10 16 0 5 -4 9 -10 9 -5 0
-10 -7 -10 -16z"/>
<path d="M2813 5233 c-7 -2 -13 -16 -13 -29 0 -25 0 -25 25 -7 33 24 24 51
-12 36z"/>
<path d="M2937 5157 c-23 -23 -19 -27 10 -12 12 6 19 16 15 21 -4 6 -14 3 -25
-9z"/>
<path d="M248 5160 c-38 -4 -70 -9 -73 -12 -13 -13 12 -43 38 -45 15 -1 25 2
23 6 -3 4 15 8 40 8 25 1 51 6 56 11 6 6 17 8 24 5 17 -6 18 13 2 24 -18 10
-32 11 -110 3z"/>
<path d="M666 5149 c-60 -10 -79 -17 -72 -27 5 -8 -8 -12 -47 -13 -15 0 -16
-3 -7 -14 7 -8 10 -21 7 -30 -9 -21 14 -31 28 -12 7 11 16 13 26 6 8 -5 19 -9
24 -9 6 0 3 5 -5 10 -13 9 -13 10 0 11 8 1 19 1 24 0 5 -1 13 3 17 10 6 10 14
9 38 -1 17 -7 38 -9 48 -5 10 5 20 9 23 9 12 3 30 18 30 26 0 5 -8 11 -17 13
-17 4 -17 5 0 6 9 0 17 5 17 10 0 5 -9 7 -20 4 -11 -3 -20 -1 -20 4 0 11 -33
12 -94 2z"/>
<path d="M857 5143 c3 -7 9 -13 13 -13 4 0 10 6 13 13 3 7 -3 13 -13 13 -10 0
-16 -6 -13 -13z"/>
<path d="M918 5139 c-9 -5 -15 -16 -12 -24 4 -8 10 -12 15 -9 5 3 9 -3 10 -13
0 -10 3 -13 5 -8 2 6 19 9 38 7 24 -3 35 1 40 13 5 14 2 16 -18 11 -24 -6 -53
14 -39 27 10 11 -20 8 -39 -4z"/>
<path d="M2720 5125 c-8 -9 -8 -15 -2 -15 12 0 26 19 19 26 -2 2 -10 -2 -17
-11z"/>
<path d="M2886 5105 c-3 -9 0 -15 9 -15 16 0 20 16 6 24 -5 3 -11 -1 -15 -9z"/>
<path d="M516 5074 c-8 -22 -4 -25 11 -9 7 8 9 16 4 19 -5 3 -12 -1 -15 -10z"/>
<path d="M2830 5044 c0 -8 5 -12 10 -9 6 3 10 10 10 16 0 5 -4 9 -10 9 -5 0
-10 -7 -10 -16z"/>
<path d="M5802 5039 c-10 -15 -11 -24 -3 -32 6 -6 11 -19 11 -29 0 -20 25 -25
36 -7 7 12 -15 89 -25 89 -3 0 -12 -10 -19 -21z"/>
<path d="M5963 5040 c-8 -12 -9 -21 -3 -25 15 -9 30 4 30 26 0 24 -12 24 -27
-1z"/>
<path d="M1620 5030 c-8 -6 -27 -10 -42 -10 -21 0 -28 -5 -28 -20 0 -21 -19
-22 -63 -5 -20 8 -50 -12 -40 -27 3 -6 0 -8 -8 -6 -8 3 -25 1 -39 -4 -35 -13
-318 -20 -338 -8 -15 8 -14 9 6 10 12 0 22 4 22 8 0 5 -13 8 -30 7 -16 -1 -27
2 -24 7 3 4 -2 8 -11 8 -9 0 -13 -5 -10 -10 4 -7 -9 -8 -37 -5 -66 9 -140 8
-147 -2 -3 -4 -16 -14 -28 -20 -18 -10 -21 -10 -17 0 3 8 -2 14 -11 14 -8 0
-15 -6 -15 -12 0 -8 -10 -10 -25 -7 -14 2 -32 -1 -40 -8 -13 -11 -14 -10 -9 5
6 15 4 16 -14 6 -17 -9 -22 -9 -22 1 0 10 -2 10 -9 -1 -5 -7 -14 -10 -20 -7
-6 4 -11 2 -11 -5 0 -10 -3 -10 -11 -2 -9 9 -18 8 -35 -4 -14 -9 -49 -16 -86
-17 -35 -1 -69 -5 -75 -9 -7 -5 -13 -4 -13 2 0 5 -15 7 -32 5 -34 -5 -197 -15
-255 -16 -18 0 -33 -5 -33 -10 0 -7 -4 -7 -13 0 -7 6 -21 6 -34 1 -21 -8 -23
-14 -23 -97 0 -81 2 -88 20 -88 11 0 20 6 20 14 0 7 4 10 10 7 12 -7 109 5
108 14 -2 18 4 21 23 10 15 -8 19 -8 15 0 -4 6 0 11 8 11 9 0 16 -4 16 -10 0
-5 4 -10 9 -10 6 0 8 9 6 20 -4 21 9 27 20 10 5 -8 11 -8 19 -1 9 7 16 7 24
-1 8 -8 12 -9 12 -1 0 6 17 11 37 11 21 1 70 4 108 7 111 11 178 11 204 3 13
-5 74 -1 145 8 72 10 214 18 351 21 127 2 235 4 240 4 6 1 26 -2 45 -6 43 -9
44 -9 105 -2 40 5 55 12 77 39 24 28 27 42 28 98 0 73 -8 94 -30 80z m-136
-55 c3 -9 0 -15 -8 -15 -7 0 -13 7 -13 15 0 8 4 15 8 15 4 0 9 -7 13 -15z
m-594 -14 c0 -16 -28 -20 -34 -5 -4 9 1 14 14 14 11 0 20 -4 20 -9z m50 5 c0
-2 -7 -6 -15 -10 -8 -3 -15 -1 -15 4 0 6 7 10 15 10 8 0 15 -2 15 -4z m94 -14
c2 -4 -4 -9 -15 -9 -11 -1 -17 2 -14 8 7 11 22 12 29 1z"/>
<path d="M7568 5033 c7 -3 16 -2 19 1 4 3 -2 6 -13 5 -11 0 -14 -3 -6 -6z"/>
<path d="M7949 5024 c-10 -9 -37 -16 -72 -17 -31 -1 -57 -5 -57 -10 0 -4 -12
-7 -27 -6 -38 1 -187 -11 -248 -20 -28 -4 -63 -4 -78 0 -18 5 -25 4 -21 -3 4
-6 -1 -8 -12 -5 -54 15 -97 17 -110 6 -11 -9 -17 -9 -29 1 -9 8 -15 8 -15 2 0
-6 -13 -9 -30 -7 -17 2 -29 1 -26 -3 2 -4 -19 -8 -47 -9 -113 -5 -147 -8 -147
-14 0 -11 -155 -32 -330 -45 -47 -3 -87 -7 -89 -9 -2 -2 -6 -24 -8 -50 -5 -43
-1 -51 29 -46 3 0 35 3 70 5 64 5 114 10 228 25 36 5 72 9 80 9 8 0 60 3 115
6 55 4 145 8 200 11 55 2 125 6 155 9 128 12 292 22 428 26 l92 2 0 79 c0 69
-2 79 -18 79 -10 0 -25 -7 -33 -16z"/>
<path d="M1107 4993 c-10 -9 -9 -23 2 -23 5 0 11 7 15 15 5 15 -5 20 -17 8z"/>
<path d="M1145 4980 c3 -5 8 -10 11 -10 2 0 4 5 4 10 0 6 -5 10 -11 10 -5 0
-7 -4 -4 -10z"/>
<path d="M5920 4971 c0 -12 5 -21 10 -21 6 0 10 6 10 14 0 8 -4 18 -10 21 -5
3 -10 -3 -10 -14z"/>
<path d="M5958 4965 c-11 -11 4 -45 19 -45 11 0 13 4 6 13 -6 6 -12 18 -14 25
-3 7 -7 10 -11 7z"/>
<path d="M5812 4938 c-15 -15 -16 -45 -2 -53 6 -3 10 4 10 17 1 22 1 22 15 4
15 -19 15 -19 15 1 0 28 -23 46 -38 31z"/>
<path d="M1714 4729 c-3 -6 1 -18 10 -27 15 -15 16 -14 16 11 0 27 -13 36 -26
16z"/>
<path d="M335 4673 c-11 -2 -27 -7 -35 -10 -8 -4 -35 -7 -60 -9 -25 -1 -53 -5
-62 -9 -13 -5 -18 -2 -18 11 0 12 -3 15 -8 8 -4 -7 -20 -12 -37 -11 -16 0 -41
-3 -54 -7 -16 -6 -21 -5 -17 3 4 6 2 11 -3 11 -6 0 -11 -6 -11 -12 0 -8 -7 -5
-15 6 -13 17 -14 3 -12 -122 2 -125 11 -181 24 -144 3 7 22 12 44 12 24 0 39
-5 39 -12 0 -10 3 -9 9 1 5 7 13 11 18 8 6 -4 24 -2 41 2 20 6 34 5 41 -2 8
-8 11 -8 11 0 0 8 9 9 28 4 15 -5 38 -4 50 0 13 5 69 11 125 13 56 3 147 9
202 15 55 6 125 13 157 15 31 2 61 7 66 10 6 3 13 2 16 -3 4 -5 21 -5 43 -1
20 5 41 6 46 3 5 -3 14 1 19 8 8 11 11 11 15 1 3 -9 9 -10 17 -3 7 6 23 7 36
4 22 -6 21 -7 -15 -19 -37 -11 -34 -11 45 -8 47 2 121 6 165 9 44 2 100 5 125
6 44 2 80 21 80 43 1 6 9 29 20 51 36 75 25 84 -98 83 -34 0 -65 2 -68 5 -5 5
-252 0 -316 -7 -21 -2 -38 -1 -38 2 0 4 -28 7 -63 7 -34 -1 -65 4 -69 10 -5 6
-8 2 -8 -9 0 -12 -5 -16 -14 -13 -8 3 -17 1 -20 -6 -3 -8 -5 -8 -5 1 -1 7 -8
20 -16 28 -13 14 -15 13 -15 -5 0 -12 -6 -21 -15 -21 -8 0 -15 5 -15 10 0 6
-22 10 -50 10 -27 0 -50 4 -50 9 0 6 -28 8 -62 6 -36 -2 -68 1 -75 7 -11 8
-12 7 -6 -8 6 -17 5 -17 -10 -5 -9 7 -24 11 -32 7 -11 -4 -14 -2 -9 6 5 8 -2
9 -25 5 -20 -4 -30 -3 -26 3 6 10 3 11 -30 3z"/>
<path d="M6733 4653 c-22 -63 -35 -84 -55 -92 -14 -5 -25 -5 -29 1 -3 5 -9 2
-13 -7 -4 -12 -14 -16 -31 -13 -22 5 -25 1 -34 -46 -5 -28 -12 -91 -16 -141
-12 -178 -56 -355 -113 -453 -14 -24 -26 -51 -27 -60 -6 -60 -38 -170 -66
-225 -5 -9 -12 -45 -15 -80 -7 -85 -28 -139 -85 -223 -27 -39 -49 -79 -49 -90
0 -31 -40 -62 -85 -66 l-40 -3 -11 -60 c-25 -143 -44 -175 -155 -271 -19 -17
-31 -48 -52 -130 -15 -60 -27 -118 -27 -130 0 -23 -33 -58 -44 -47 -9 9 -45
-36 -46 -55 0 -8 -6 -28 -13 -45 -7 -18 -25 -66 -39 -107 -14 -41 -32 -90 -39
-108 -17 -40 -5 -52 54 -52 20 0 37 -4 37 -10 0 -17 47 -41 90 -45 23 -2 48
-9 56 -16 7 -6 25 -8 38 -5 14 3 28 1 31 -4 4 -6 11 -8 16 -4 5 3 16 0 24 -6
11 -9 15 -9 15 -1 0 6 3 10 8 9 4 -1 17 3 30 10 12 7 27 10 32 7 5 -3 12 0 16
6 5 9 11 6 21 -7 12 -16 15 -17 23 -4 5 8 10 11 10 5 0 -5 19 -11 43 -12 23
-1 66 -4 95 -5 40 -2 53 -7 58 -21 6 -19 70 -50 85 -41 5 3 9 -1 9 -9 0 -15
20 -21 123 -36 31 -5 64 -14 72 -21 9 -7 18 -10 22 -6 3 3 0 6 -7 6 -7 0 -11
3 -8 6 9 8 59 -27 52 -37 -3 -5 5 -9 18 -10 13 0 30 -2 38 -5 8 -2 33 -8 55
-13 103 -25 132 -36 155 -60 29 -31 57 -45 83 -42 15 2 18 -3 14 -28 -5 -29 7
-53 15 -31 2 5 19 7 41 3 27 -4 34 -9 25 -14 -19 -13 52 1 87 17 37 16 103 14
110 -4 3 -8 17 -13 32 -12 16 1 33 1 38 0 6 -1 28 -1 50 -1 l40 1 -30 -13
c-16 -8 -37 -12 -45 -9 -9 3 -7 -2 5 -11 11 -9 32 -17 47 -17 15 0 38 -5 52
-11 43 -20 10 -36 -71 -35 -39 1 -69 4 -66 8 2 4 -3 5 -11 2 -8 -3 -21 -2 -28
2 -18 12 -138 14 -138 3 0 -5 6 -9 13 -9 6 0 4 -5 -6 -11 -9 -5 -24 -23 -32
-39 -9 -17 -22 -30 -31 -30 -8 0 -17 -7 -20 -15 -4 -10 -11 -12 -22 -6 -12 7
-22 3 -39 -15 -12 -13 -28 -24 -35 -24 -11 0 -11 2 0 8 17 11 -82 7 -135 -6
-28 -6 -43 -6 -46 1 -1 5 -11 2 -20 -7 -22 -23 -53 -17 -49 9 2 15 1 17 -6 6
-7 -9 -12 -10 -16 -2 -4 6 -12 9 -17 6 -5 -4 -9 -1 -9 4 0 6 -7 11 -15 11 -8
0 -15 -6 -15 -12 0 -9 -4 -8 -10 2 -5 8 -10 10 -10 3 0 -6 -9 -9 -20 -6 -24 6
-25 16 -5 37 21 21 19 28 -7 24 -13 -2 -22 -9 -20 -16 2 -9 -4 -11 -17 -7 -11
3 -43 10 -71 14 -48 8 -52 7 -71 -20 -24 -35 -53 -37 -127 -10 -56 21 -92 18
-92 -7 0 -14 -2 -14 -17 0 -29 26 -63 32 -76 14 -10 -14 -17 -14 -50 -3 -20 8
-35 16 -32 19 3 3 -6 8 -20 10 -14 3 -25 1 -25 -4 0 -5 -5 -6 -12 -2 -7 5 -9
2 -5 -9 5 -12 -5 -18 -43 -26 -27 -6 -57 -8 -66 -4 -12 4 -15 3 -10 -6 14 -22
-67 -10 -86 13 -10 12 -18 16 -18 8 0 -9 -5 -10 -19 -3 -15 8 -20 7 -25 -5 -4
-10 -11 -12 -22 -6 -8 5 -62 7 -120 4 -105 -4 -129 4 -79 26 16 7 23 17 19 27
-7 18 -24 19 -58 3 -20 -9 -23 -14 -15 -25 6 -7 8 -13 5 -13 -11 0 -36 27 -30
32 2 3 -5 13 -16 23 -19 17 -20 17 -30 -10 -12 -31 -5 -47 17 -43 9 2 18 -3
21 -11 3 -9 -1 -11 -16 -7 -11 4 -23 2 -26 -3 -4 -6 -18 -6 -39 0 -17 5 -37 9
-43 9 -19 0 -63 -128 -64 -185 0 -17 -6 -39 -14 -50 -7 -11 -18 -33 -24 -50
l-10 -30 -1 28 c-1 37 -15 34 -35 -7 -20 -43 -32 -101 -52 -261 -10 -86 -22
-140 -35 -161 -28 -47 -216 -224 -296 -280 -78 -55 -176 -100 -293 -135 -41
-12 -84 -28 -95 -34 -30 -19 -137 -43 -245 -55 -52 -5 -246 -13 -431 -17
l-337 -6 -82 57 c-45 32 -89 64 -98 71 -150 125 -244 189 -326 223 -33 13 -80
38 -105 54 -54 36 -190 156 -239 211 -25 26 -43 37 -63 37 -16 0 -29 5 -29 10
0 6 -8 10 -17 10 -15 0 -16 -2 -3 -10 13 -8 12 -10 -2 -10 -10 0 -18 5 -18 11
0 5 -5 7 -11 4 -5 -4 -110 -6 -232 -4 -122 1 -283 2 -357 2 -685 -6 -1094 -2
-1108 9 -12 10 -14 10 -8 0 5 -8 1 -12 -10 -12 -10 0 -14 3 -11 6 10 11 -42
46 -61 41 -12 -3 -11 -5 6 -6 14 -1 21 -5 16 -12 -3 -6 0 -15 7 -20 9 -5 -8
-9 -46 -9 -33 0 -67 5 -75 10 -12 8 -9 10 13 10 16 0 36 7 45 16 15 15 14 16
-8 8 -14 -5 -63 -7 -110 -6 -63 2 -81 0 -70 -8 11 -8 1 -10 -43 -8 -31 2 -57
-1 -57 -6 0 -6 -5 -5 -11 1 -6 6 -25 9 -43 7 -69 -9 -132 -10 -158 -3 -15 4
-30 4 -33 -1 -3 -5 -14 -7 -25 -5 -20 4 -20 -3 -20 -476 l0 -479 4000 0 4000
0 0 1095 c0 934 -2 1095 -14 1095 -9 0 -12 7 -9 20 3 11 9 20 14 20 5 0 8 507
7 1203 -3 1062 -5 1202 -18 1198 -8 -1 -26 -3 -40 -3 -46 0 -234 -18 -285 -28
-83 -15 -194 -20 -221 -10 -19 7 -23 7 -18 -2 5 -8 2 -9 -12 -3 -10 5 -40 8
-66 7 -26 0 -51 4 -54 10 -4 7 -9 6 -13 -1 -7 -11 -19 -12 -121 -10 -25 0 -76
-3 -115 -6 -38 -4 -106 -7 -150 -7 -49 0 -83 -5 -87 -12 -6 -8 -8 -8 -8 1 0 9
-7 10 -24 3 -23 -8 -23 -8 -15 28 11 50 11 72 -1 72 -6 0 -13 -8 -17 -17z
m227 -1094 c0 -23 -4 -30 -14 -26 -14 6 -32 -21 -21 -31 3 -3 5 0 5 7 0 7 5 9
10 6 16 -10 0 -27 -21 -22 -10 3 -20 0 -23 -7 -2 -6 -5 -3 -5 7 -1 10 -5 15
-11 12 -5 -3 -7 0 -4 9 3 8 12 12 21 9 10 -4 14 0 13 13 -5 44 0 54 25 54 21
0 25 -5 25 -31z m-80 -104 c19 -23 8 -26 -20 -5 -19 15 -21 20 -9 20 9 0 22
-7 29 -15z m35 5 c3 -5 1 -10 -4 -10 -6 0 -11 5 -11 10 0 6 2 10 4 10 3 0 8
-4 11 -10z m33 -10 c-7 -11 -19 -22 -28 -25 -8 -4 -4 5 9 19 29 31 36 33 19 6z
m383 -1137 c7 -10 10 -15 5 -11 -5 4 -17 -3 -28 -15 -18 -20 -19 -20 -13 -2 4
11 8 26 8 33 1 17 12 15 28 -5z m-181 -33 c0 -5 -16 -10 -35 -10 -19 0 -35 5
-35 10 0 6 16 10 35 10 19 0 35 -4 35 -10z m-600 -47 c-1 -11 -80 -99 -80 -89
0 8 70 96 76 96 2 0 4 -3 4 -7z m-66 -35 c-16 -18 -33 -37 -38 -43 -13 -15 4
15 28 48 11 15 24 27 30 27 5 0 -3 -15 -20 -32z m87 14 c-5 -10 -18 -25 -28
-33 -12 -10 -11 -5 6 19 24 35 38 43 22 14z m109 -8 c0 -8 -8 -14 -17 -15 -10
0 -26 -2 -35 -4 -21 -4 -22 -1 -8 24 11 22 60 17 60 -5z m993 -551 c-7 -2 -21
-2 -30 0 -10 3 -4 5 12 5 17 0 24 -2 18 -5z m-83 -23 c0 -5 -4 -10 -9 -10 -6
0 -13 5 -16 10 -3 6 1 10 9 10 9 0 16 -4 16 -10z m67 -26 c-3 -3 -12 -4 -19
-1 -8 3 -5 6 6 6 11 1 17 -2 13 -5z m-307 -208 c0 -3 -4 -8 -10 -11 -5 -3 -10
-1 -10 4 0 6 5 11 10 11 6 0 10 -2 10 -4z m-2095 -166 c-3 -5 -12 -10 -18 -10
-7 0 -6 4 3 10 19 12 23 12 15 0z m1240 0 c-27 -12 -43 -12 -25 0 8 5 22 9 30
9 10 0 8 -3 -5 -9z m-45 -19 c0 -9 -34 -21 -60 -21 -11 1 -10 4 4 15 22 16 56
20 56 6z m80 5 c0 -9 -30 -14 -35 -6 -4 6 3 10 14 10 12 0 21 -2 21 -4z m-445
-16 c-3 -5 -14 -10 -23 -10 -15 0 -15 2 -2 10 20 13 33 13 25 0z m165 0 c0 -5
-7 -10 -16 -10 -8 0 -12 5 -9 10 3 6 10 10 16 10 5 0 9 -4 9 -10z m-245 -10
c-3 -5 -11 -10 -16 -10 -6 0 -7 5 -4 10 3 6 11 10 16 10 6 0 7 -4 4 -10z
m-385 -10 c0 -5 -12 -10 -27 -10 -22 0 -25 2 -13 10 20 13 40 13 40 0z m820 0
c-13 -8 -12 -10 4 -10 11 0 17 -3 13 -6 -3 -3 -15 -3 -26 1 -24 7 -19 25 7 25
15 0 15 -2 2 -10z m-483 -13 c-8 -6 -4 -7 10 -4 13 3 41 -1 65 -7 l42 -13 -90
-21 c-49 -12 -105 -24 -124 -27 -19 -3 -44 -8 -55 -10 -11 -2 -29 -5 -40 -6
-11 -1 7 -5 40 -8 33 -3 62 -3 65 0 10 14 87 27 140 25 30 -1 72 2 93 6 21 5
75 10 120 13 79 4 153 14 247 34 58 13 113 14 106 2 -3 -5 -15 -7 -26 -4 -11
3 -20 0 -20 -5 0 -7 19 -10 53 -7 28 2 44 1 34 -1 -10 -3 -30 -12 -45 -20
l-27 -14 25 0 c22 0 21 -2 -13 -20 -20 -11 -48 -20 -62 -20 -14 0 -25 -5 -25
-11 0 -7 10 -9 25 -5 19 5 23 3 19 -9 -4 -8 -10 -15 -16 -15 -5 0 -6 -5 -2
-12 5 -8 3 -8 -7 -2 -8 5 -30 9 -49 9 -24 0 -34 4 -32 14 2 10 -7 8 -32 -7
-35 -21 -102 -30 -271 -38 -44 -2 -100 -7 -125 -12 -45 -9 -45 -9 24 -11 75
-1 86 -8 19 -12 -23 -2 -40 -7 -37 -11 3 -5 10 -5 16 -2 6 4 14 0 19 -7 9 -15
12 -16 66 -18 73 -2 23 -12 -73 -14 -55 -2 -105 -6 -111 -10 -7 -5 -13 -4 -13
1 0 6 -58 9 -142 8 -97 -1 -149 3 -163 11 -18 11 -17 12 15 13 19 1 29 4 23 7
-26 10 -12 19 22 15 19 -2 47 -1 62 3 l28 8 -35 9 c-19 5 -46 11 -60 12 -14 2
-16 1 -5 -1 11 -3 25 -9 30 -15 7 -7 0 -8 -21 -3 -20 4 -45 1 -67 -8 -26 -11
-68 -14 -166 -12 -73 1 -131 -1 -131 -6 0 -5 11 -7 24 -3 14 3 33 1 43 -5 19
-11 17 -12 -62 -16 -115 -6 -120 -6 -100 -15 14 -6 15 -9 4 -9 -18 -1 -39 18
-39 36 0 9 19 14 63 15 l62 1 -60 7 c-57 6 -55 7 34 8 85 2 93 4 75 16 -10 8
-20 10 -22 5 -2 -5 -36 -9 -75 -9 -66 1 -70 2 -53 15 11 8 14 15 8 15 -16 0
-15 43 2 85 12 28 21 35 43 35 15 0 57 7 93 16 36 9 88 18 115 20 28 3 62 9
77 14 17 5 30 5 33 -1 4 -5 1 -10 -4 -10 -6 -1 -15 -3 -21 -4 -5 -1 -16 -3
-22 -4 -8 -1 -6 -6 5 -12 9 -6 15 -14 12 -20 -4 -5 -1 -9 5 -9 7 0 10 7 6 15
-4 10 1 15 14 15 11 0 19 -3 19 -7 -4 -28 2 -31 39 -20 20 6 39 15 42 19 3 4
30 10 60 12 30 3 66 8 80 11 l25 6 -24 -11 c-13 -6 -22 -13 -19 -15 7 -8 72
17 83 31 10 13 38 19 92 20 22 0 29 -3 20 -9z m185 5 c10 -4 -10 -8 -44 -8
-39 -1 -55 2 -43 7 25 9 64 10 87 1z m248 -6 c0 -8 -5 -18 -12 -22 -7 -4 -8
-3 -4 4 4 7 1 12 -8 12 -8 0 -17 -4 -21 -10 -3 -5 -13 -6 -21 -3 -18 7 -8 19
21 26 36 9 45 7 45 -7z m-770 -30 c0 -13 -47 -32 -57 -22 -3 3 29 24 55 35 1
1 2 -5 2 -13z m673 7 c-7 -2 -19 -2 -25 0 -7 3 -2 5 12 5 14 0 19 -2 13 -5z
m310 -100 c-7 -2 -19 -2 -25 0 -7 3 -2 5 12 5 14 0 19 -2 13 -5z m-128 -58 c6
-2 -13 -4 -42 -4 -28 -1 -54 3 -57 8 -5 8 74 5 99 -4z m80 5 c-28 -12 -37 -12
-30 0 3 6 16 10 28 9 21 0 21 -1 2 -9z m-210 -10 c-4 -6 6 -11 22 -11 19 -1
22 -3 9 -6 -14 -4 -15 -7 -6 -13 7 -4 -6 -10 -34 -14 -43 -7 -75 -26 -42 -26
9 0 16 -5 16 -10 0 -7 -6 -7 -19 -1 -10 6 -22 7 -26 3 -3 -4 -35 -7 -70 -7
-54 0 -61 2 -42 11 l21 12 -22 4 c-27 4 -30 23 -4 24 37 2 43 4 38 13 -3 4 18
9 47 10 28 0 66 5 82 10 17 5 31 10 33 10 2 1 0 -3 -3 -9z m-5878 -16 c-3 -3
-12 -4 -19 -1 -8 3 -5 6 6 6 11 1 17 -2 13 -5z m5643 -4 c0 -5 -4 -10 -10 -10
-5 0 -10 5 -10 10 0 6 5 10 10 10 6 0 10 -4 10 -10z m53 3 c-7 -2 -19 -2 -25
0 -7 3 -2 5 12 5 14 0 19 -2 13 -5z m360 0 c-7 -2 -21 -2 -30 0 -10 3 -4 5 12
5 17 0 24 -2 18 -5z m-6130 -20 c-7 -2 -19 -2 -25 0 -7 3 -2 5 12 5 14 0 19
-2 13 -5z m60 0 c-7 -2 -19 -2 -25 0 -7 3 -2 5 12 5 14 0 19 -2 13 -5z m5646
-13 c-9 -5 -28 -6 -45 0 -27 8 -26 8 16 9 32 0 40 -2 29 -9z m368 4 c-3 -3
-12 -4 -19 -1 -8 3 -5 6 6 6 11 1 17 -2 13 -5z m50 0 c-3 -3 -12 -4 -19 -1 -8
3 -5 6 6 6 11 1 17 -2 13 -5z m-984 -15 c22 -1 15 -4 -23 -10 -30 -5 -73 -5
-95 -2 l-40 7 50 7 c28 3 56 4 63 2 8 -1 28 -4 45 -4z m1097 -1 c0 -8 -16 -12
-39 -8 -8 1 -17 -3 -21 -10 -8 -13 -37 -4 -37 13 0 8 18 12 49 12 26 0 48 -3
48 -7z m110 -4 c0 -16 -2 -16 -24 -8 -22 8 -20 19 4 21 11 1 20 -4 20 -13z
m88 9 c-10 -2 -28 -2 -40 0 -13 2 -5 4 17 4 22 1 32 -1 23 -4z m105 0 c-7 -2
-21 -2 -30 0 -10 3 -4 5 12 5 17 0 24 -2 18 -5z m-256 -9 c-3 -3 -12 -4 -19
-1 -8 3 -5 6 6 6 11 1 17 -2 13 -5z m-337 -14 c0 -5 -5 -10 -11 -10 -5 0 -7 5
-4 10 3 6 8 10 11 10 2 0 4 -4 4 -10z m73 3 c-7 -2 -21 -2 -30 0 -10 3 -4 5
12 5 17 0 24 -2 18 -5z m-860 -10 c-7 -2 -21 -2 -30 0 -10 3 -4 5 12 5 17 0
24 -2 18 -5z m300 -10 c-7 -2 -19 -2 -25 0 -7 3 -2 5 12 5 14 0 19 -2 13 -5z
m-15 -40 c-10 -2 -26 -2 -35 0 -10 3 -2 5 17 5 19 0 27 -2 18 -5z m-230 -10
c-10 -2 -26 -2 -35 0 -10 3 -2 5 17 5 19 0 27 -2 18 -5z m99 1 c-3 -3 -12 -4
-19 -1 -8 3 -5 6 6 6 11 1 17 -2 13 -5z m-209 -441 c-10 -2 -26 -2 -35 0 -10
3 -2 5 17 5 19 0 27 -2 18 -5z m-881 -9 c-3 -3 -12 -4 -19 -1 -8 3 -5 6 6 6
11 1 17 -2 13 -5z m1230 -20 c-3 -3 -12 -4 -19 -1 -8 3 -5 6 6 6 11 1 17 -2
13 -5z m-1040 -30 c-3 -3 -12 -4 -19 -1 -8 3 -5 6 6 6 11 1 17 -2 13 -5z
m-200 -10 c-3 -3 -12 -4 -19 -1 -8 3 -5 6 6 6 11 1 17 -2 13 -5z"/>
<path d="M5665 1110 c-4 -6 3 -10 14 -10 25 0 27 6 6 13 -8 4 -17 2 -20 -3z"/>
<path d="M5818 1013 c7 -3 16 -2 19 1 4 3 -2 6 -13 5 -11 0 -14 -3 -6 -6z"/>
<path d="M5980 1010 c0 -5 5 -10 10 -10 6 0 10 5 10 10 0 6 -4 10 -10 10 -5 0
-10 -4 -10 -10z"/>
<path d="M6038 1007 c16 -7 26 -7 34 1 8 8 2 10 -23 10 -31 -1 -32 -2 -11 -11z"/>
<path d="M6303 1013 c9 -2 23 -2 30 0 6 3 -1 5 -18 5 -16 0 -22 -2 -12 -5z"/>
<path d="M5938 1003 c7 -3 16 -2 19 1 4 3 -2 6 -13 5 -11 0 -14 -3 -6 -6z"/>
<path d="M6108 1003 c12 -2 30 -2 40 0 9 3 -1 5 -23 4 -22 0 -30 -2 -17 -4z"/>
<path d="M5793 973 c9 -2 23 -2 30 0 6 3 -1 5 -18 5 -16 0 -22 -2 -12 -5z"/>
<path d="M5360 958 c0 -5 28 -8 63 -9 34 0 70 -2 79 -4 9 -2 24 2 33 9 13 9
-4 11 -80 11 -52 0 -95 -3 -95 -7z"/>
<path d="M5763 953 c9 -2 25 -2 35 0 9 3 1 5 -18 5 -19 0 -27 -2 -17 -5z"/>
<path d="M5865 940 c-8 -13 75 -13 95 0 11 7 0 10 -37 10 -28 0 -55 -4 -58
-10z"/>
<path d="M5828 933 c7 -3 16 -2 19 1 4 3 -2 6 -13 5 -11 0 -14 -3 -6 -6z"/>
<path d="M5988 913 c7 -3 16 -2 19 1 4 3 -2 6 -13 5 -11 0 -14 -3 -6 -6z"/>
<path d="M6300 950 c0 -5 7 -10 16 -10 8 0 12 5 9 10 -3 6 -10 10 -16 10 -5 0
-9 -4 -9 -10z"/>
<path d="M6225 920 c-30 -8 -30 -8 8 -9 20 0 37 4 37 9 0 11 -2 11 -45 0z"/>
<path d="M1696 4625 c4 -8 11 -15 18 -15 18 -1 52 -53 37 -58 -21 -7 115 -92
148 -92 10 0 21 -3 25 -7 4 -5 44 -16 89 -25 112 -23 294 -63 397 -87 47 -11
108 -25 135 -31 28 -7 86 -21 130 -31 86 -21 196 -42 340 -64 49 -8 107 -20
130 -28 22 -8 67 -20 100 -27 33 -7 92 -21 130 -31 39 -10 122 -30 185 -44
116 -26 214 -58 237 -77 7 -6 13 -19 13 -30 0 -48 112 -236 229 -383 61 -77
367 -386 446 -451 74 -60 155 -114 174 -115 56 -3 72 -6 89 -22 21 -20 132
-40 194 -35 20 1 40 -1 44 -5 12 -11 82 -8 90 4 3 6 0 15 -7 20 -11 7 -10 9 4
9 9 0 17 -4 17 -10 0 -12 97 -13 104 -1 3 4 28 11 56 15 30 4 53 13 57 21 3 8
17 15 32 15 33 0 52 12 55 36 2 12 12 20 27 22 52 7 90 25 110 53 11 16 28 29
37 29 20 1 62 34 62 48 0 6 16 20 35 32 19 12 35 25 35 30 0 4 19 30 43 56 55
64 107 139 107 156 0 7 16 35 35 62 19 27 35 53 35 57 0 5 11 32 23 61 27 59
58 149 77 218 7 25 16 56 20 70 8 25 21 89 25 121 1 10 9 24 17 33 9 9 18 19
20 23 1 5 30 31 63 58 110 92 130 110 168 149 20 22 37 43 37 48 0 12 -17 10
-32 -4 -60 -57 -157 -137 -177 -148 -14 -7 -33 -21 -44 -31 -26 -24 -40 -16
-55 32 -17 54 -78 144 -133 194 -130 119 -256 170 -449 179 -85 4 -202 -7
-223 -21 -7 -5 -34 -8 -62 -8 -43 0 -50 -3 -50 -20 0 -16 -11 -23 -49 -32 -59
-15 -102 -7 -109 18 -6 24 -64 26 -93 4 -10 -8 -38 -15 -62 -15 -40 0 -79 -14
-93 -34 -4 -5 -22 -6 -40 -2 -25 4 -42 1 -64 -14 -16 -11 -39 -20 -50 -20 -62
0 -342 -87 -498 -153 -58 -25 -104 -38 -143 -39 -22 0 -46 -7 -54 -14 -9 -7
-42 -19 -75 -26 -64 -15 -66 -17 -54 -88 4 -24 2 -25 -41 -24 -52 2 -172 26
-213 43 -16 6 -48 12 -70 13 -23 1 -67 12 -97 26 -33 14 -67 22 -87 20 -18 -2
-33 -1 -33 2 0 10 -157 33 -175 26 -8 -3 -30 4 -49 15 -19 11 -57 22 -85 26
-28 3 -48 10 -45 14 3 5 -5 9 -17 9 -12 0 -106 20 -208 45 -102 25 -206 50
-231 56 -25 6 -61 14 -80 19 -19 5 -87 21 -150 35 -120 28 -178 42 -220 55
-14 4 -67 21 -118 36 -51 15 -101 36 -112 46 -23 22 -41 24 -34 3z m3551 -61
c-3 -3 -12 -4 -19 -1 -8 3 -5 6 6 6 11 1 17 -2 13 -5z m-3450 -20 c-3 -3 -12
-4 -19 -1 -8 3 -5 6 6 6 11 1 17 -2 13 -5z m3153 -14 c24 -1 24 -1 6 -15 -11
-8 -37 -15 -58 -15 -21 0 -50 -7 -63 -16 -17 -11 -35 -14 -60 -10 -47 9 -45
25 3 24 22 0 52 9 72 21 19 12 44 19 55 16 11 -2 31 -5 45 -5z m565 0 c3 -5
-1 -10 -9 -10 -9 0 -16 5 -16 10 0 6 4 10 9 10 6 0 13 -4 16 -10z m-3688 -6
c-3 -3 -12 -4 -19 -1 -8 3 -5 6 6 6 11 1 17 -2 13 -5z m3282 -40 c39 -8 39
-16 1 -33 -22 -9 -33 -22 -37 -44 -5 -27 -7 -28 -14 -12 -10 25 -11 80 -2 88
8 9 13 9 52 1z m-426 -35 c-6 -6 -30 -13 -54 -16 -40 -6 -43 -5 -30 10 8 11
28 17 54 17 29 0 38 -3 30 -11z m-133 -44 c-7 -8 -22 -15 -33 -15 -25 0 -12
16 18 23 11 3 22 5 24 6 2 0 -2 -6 -9 -14z m-162 -62 c-10 -2 -28 -2 -40 0
-13 2 -5 4 17 4 22 1 32 -1 23 -4z m-118 -48 c0 -8 -9 -15 -20 -15 -25 0 -26
17 -2 23 9 3 18 5 20 6 1 0 2 -6 2 -14z m-293 -131 c-3 -3 -12 -4 -19 -1 -8 3
-5 6 6 6 11 1 17 -2 13 -5z m-520 -20 c-3 -3 -12 -4 -19 -1 -8 3 -5 6 6 6 11
1 17 -2 13 -5z m401 -21 c-10 -2 -28 -2 -40 0 -13 2 -5 4 17 4 22 1 32 -1 23
-4z m2005 -490 c-7 -2 -13 -12 -13 -20 0 -9 -3 -14 -6 -10 -10 10 4 37 18 36
10 0 10 -2 1 -6z"/>
<path d="M5037 4583 c-15 -14 -6 -24 20 -21 34 4 43 28 11 28 -14 0 -28 -3
-31 -7z"/>
<path d="M1718 4563 c7 -3 16 -2 19 1 4 3 -2 6 -13 5 -11 0 -14 -3 -6 -6z"/>
<path d="M1676 4508 c-3 -7 -7 -35 -9 -63 -3 -27 -10 -51 -16 -53 -6 -2 -11
-13 -11 -25 0 -11 -7 -49 -16 -83 -11 -45 -12 -68 -5 -82 7 -14 7 -24 -3 -38
-24 -32 -2 -138 36 -176 12 -12 18 -33 18 -66 0 -36 5 -50 20 -59 17 -12 20
-9 26 25 3 20 15 52 26 71 10 18 16 36 14 39 -3 3 2 11 11 17 15 11 15 17 5
39 -7 15 -8 26 -2 26 6 0 10 -7 10 -15 0 -8 7 -15 15 -15 17 0 21 -45 5 -55
-5 -3 -10 -19 -10 -36 0 -16 5 -29 10 -29 6 0 10 8 10 18 0 13 2 14 9 3 5 -7
9 -134 9 -282 0 -148 3 -273 7 -279 3 -5 15 -10 26 -10 18 0 25 15 20 50 -1 8
-4 64 -6 123 -4 81 -2 108 7 105 7 -3 33 -57 59 -122 81 -201 149 -292 296
-398 95 -69 185 -109 312 -138 81 -19 109 -21 195 -15 56 4 118 7 139 8 24 1
36 5 33 13 -3 7 18 13 62 17 43 4 71 12 78 22 10 14 12 14 18 -1 6 -16 8 -15
29 3 12 11 39 27 59 37 43 19 116 73 162 119 46 47 186 234 186 250 0 7 4 17
9 22 6 6 24 44 41 85 18 41 39 91 47 110 14 33 67 143 88 181 5 9 29 24 54 32
45 14 46 15 42 53 -1 22 -7 44 -12 50 -11 14 -98 44 -126 44 -10 0 -36 7 -58
15 -73 26 -74 25 -68 -64 6 -80 0 -131 -16 -131 -5 0 -11 15 -14 33 -14 87
-43 166 -67 182 -25 17 -92 35 -150 41 -30 3 -60 10 -65 14 -6 5 -28 11 -50
14 -22 3 -53 9 -68 12 -16 4 -39 1 -52 -6 -16 -8 -40 -11 -71 -6 -26 3 -61 2
-78 -4 -17 -5 -71 -23 -121 -39 -131 -42 -335 -150 -335 -176 0 -7 -7 -18 -15
-25 -8 -7 -15 -21 -15 -31 0 -10 -9 -24 -20 -32 -20 -14 -20 -14 0 -32 20 -18
20 -18 -7 -37 l-28 -19 65 5 c99 8 114 7 125 -7 14 -17 61 -37 89 -37 13 0 31
9 41 20 16 18 27 19 153 14 74 -3 143 -9 153 -15 10 -5 31 -6 45 -3 18 5 25 3
21 -3 -9 -14 -62 -25 -112 -24 -59 2 -85 -7 -95 -32 -6 -15 -9 -17 -9 -6 -1
20 -30 34 -43 21 -11 -11 1 -62 16 -68 6 -2 47 -8 91 -12 64 -7 84 -6 102 6
24 15 53 11 53 -8 0 -5 -12 -10 -26 -10 -16 0 -23 -4 -18 -11 3 -6 24 -9 48
-7 22 3 54 0 69 -5 51 -17 24 -32 -69 -37 l-89 -6 53 -8 c60 -10 66 -20 20
-31 l-33 -8 35 -7 c65 -12 183 0 207 22 12 11 19 26 16 34 -3 8 5 18 21 24 15
5 29 18 32 27 3 10 10 25 15 33 5 8 12 22 15 31 4 11 13 15 25 12 10 -3 19 -1
19 5 0 5 9 12 21 15 18 5 20 2 13 -26 -7 -32 -50 -138 -104 -254 -53 -113
-150 -189 -328 -257 -50 -19 -105 -45 -122 -58 -28 -20 -34 -21 -73 -10 -23 7
-85 17 -137 23 -104 10 -247 47 -313 80 -52 27 -176 127 -211 171 -14 18 -32
40 -40 48 -7 8 -16 25 -20 37 -4 11 -13 24 -21 27 -8 3 -15 14 -15 25 0 11 -4
22 -8 25 -9 6 -55 149 -71 221 -6 28 -13 109 -17 180 -10 222 27 354 116 410
22 14 43 25 47 25 5 0 19 9 33 20 l25 20 -35 1 c-19 1 -41 1 -48 0 -8 -1 -19
2 -25 7 -15 12 -115 18 -142 8 -11 -4 -30 -12 -43 -17 -13 -5 -30 -9 -38 -9
-9 0 -22 -7 -30 -15 -9 -8 -25 -15 -36 -15 -17 0 -18 2 -8 15 10 12 10 19 2
27 -7 7 -12 22 -12 33 0 29 -9 36 -31 24 -16 -8 -21 -5 -31 17 -10 22 -10 28
0 32 6 2 12 10 12 17 0 19 -19 29 -24 13z m76 -233 c-2 -11 -4 -44 -4 -72 -1
-43 -4 -53 -17 -53 -22 0 -41 19 -41 42 0 10 -7 18 -15 18 -8 0 -15 5 -15 10
0 6 6 10 13 10 8 0 22 16 33 35 20 38 51 44 46 10z m1375 -161 c2 -5 -16 -10
-39 -10 -24 0 -35 1 -25 4 9 2 17 10 17 17 0 11 6 12 22 6 12 -4 23 -12 25
-17z m63 -39 c0 -9 -9 -15 -22 -15 -21 0 -21 0 -2 15 24 18 24 18 24 0z
m-1485 -76 c4 -11 4 -23 1 -26 -3 -4 -6 1 -6 10 0 10 -4 17 -10 17 -5 0 -10 5
-10 10 0 18 19 10 25 -11z m1010 -113 c14 -10 17 -21 12 -52 -4 -22 -3 -33 2
-26 6 10 10 7 13 -12 7 -34 -2 -33 -67 9 -62 39 -68 57 -27 79 34 19 44 19 67
2z m-76 -157 c-16 -10 -23 -4 -14 10 3 6 11 8 17 5 6 -4 5 -9 -3 -15z m495
-118 c3 -5 -7 -11 -22 -14 -30 -6 -45 0 -37 14 8 12 52 12 59 0z"/>
<path d="M1710 4480 c0 -5 5 -10 10 -10 6 0 10 5 10 10 0 6 -4 10 -10 10 -5 0
-10 -4 -10 -10z"/>
<path d="M2600 4460 c-63 -3 -108 -8 -100 -12 14 -6 187 -45 310 -69 30 -7
109 -25 175 -41 66 -16 143 -32 170 -35 55 -5 92 -13 175 -38 30 -9 66 -19 80
-22 14 -3 27 -9 30 -13 8 -12 70 -23 70 -12 0 5 -7 12 -15 16 -8 3 -15 10 -15
16 0 6 11 3 25 -6 14 -9 23 -19 20 -22 -3 -3 11 -11 32 -18 38 -13 59 -8 83
21 11 13 10 14 -6 8 -10 -3 -23 -12 -27 -20 -4 -7 -12 -13 -17 -13 -15 0 -12
28 3 33 7 3 5 6 -6 6 -26 1 -67 31 -67 48 0 10 -7 13 -22 9 l-23 -6 23 11 c12
7 22 15 22 19 0 13 -49 33 -69 27 -12 -3 -27 3 -37 14 -10 11 -35 25 -57 31
-22 7 -50 22 -61 33 -28 27 -163 53 -193 37 -11 -6 -23 -8 -27 -4 -8 8 -312 9
-476 2z"/>
<path d="M548 4364 c-14 -14 -22 -15 -49 -5 -18 6 -35 9 -37 6 -3 -3 0 -5 6
-5 7 0 12 -4 12 -10 0 -5 -8 -6 -17 -3 -16 6 -17 5 -3 -12 13 -16 13 -18 0
-13 -8 3 -27 1 -42 -3 -17 -5 -28 -4 -28 2 0 6 -9 7 -20 4 -12 -4 -20 -2 -20
5 0 7 -6 8 -19 0 -13 -7 -28 -7 -46 0 -14 5 -24 6 -21 1 3 -5 -1 -14 -8 -20
-9 -8 -17 -8 -20 -2 -3 5 0 11 6 14 7 2 -5 3 -27 1 -22 -1 -52 -3 -67 -3 -18
-1 -29 -8 -34 -23 -6 -21 -7 -21 -21 5 -16 32 -33 35 -40 6 -3 -12 -11 -18
-19 -15 -8 3 -14 1 -14 -5 0 -6 -4 -7 -10 -4 -7 4 -10 -410 -10 -1235 l0
-1242 47 6 c143 19 172 24 185 32 8 5 9 2 5 -9 -4 -11 -1 -17 7 -17 8 0 16 6
19 13 2 6 8 9 12 5 4 -4 -6 -23 -23 -43 -55 -62 -67 -93 -67 -178 0 -72 2 -80
25 -97 l25 -20 -31 0 c-17 0 -34 -3 -38 -7 -11 -11 -30 -10 -37 0 -12 17 -69
16 -78 -2 -15 -25 -25 -16 -37 31 -9 38 -11 26 -13 -98 l-2 -141 283 3 c156 2
301 4 323 5 22 0 78 1 124 0 65 -1 86 3 95 15 7 8 16 15 21 14 29 -6 35 2 35
45 0 39 3 45 25 51 14 3 25 13 25 20 0 8 15 24 34 35 25 15 36 29 41 57 4 20
14 49 23 64 15 25 15 29 0 45 -18 20 -22 99 -6 109 5 3 2 16 -6 30 -21 30 -20
33 5 27 11 -3 18 -11 15 -18 -3 -8 4 -10 19 -7 12 2 26 -1 29 -7 4 -6 14 -11
22 -11 9 0 22 -7 30 -15 13 -13 13 -15 1 -15 -8 0 -18 -7 -21 -16 -10 -26 -7
-36 9 -30 8 3 15 1 15 -4 0 -6 -4 -10 -10 -10 -5 0 -10 -4 -10 -10 0 -5 7 -10
16 -10 9 0 23 -8 30 -17 10 -15 17 -16 42 -7 25 10 30 9 25 -2 -3 -8 -10 -14
-17 -14 -6 0 -5 -4 4 -9 8 -6 17 -8 21 -5 4 2 10 0 14 -6 3 -5 1 -10 -5 -10
-7 0 -10 -6 -7 -14 4 -10 -4 -17 -24 -21 -16 -4 -29 -11 -29 -16 0 -6 9 -7 20
-4 21 7 25 -13 5 -27 -6 -5 -5 -8 4 -8 9 0 11 -8 7 -27 -5 -20 -4 -24 3 -13 8
12 14 12 34 1 14 -7 35 -10 48 -6 13 3 20 3 14 -2 -18 -14 -17 -36 0 -29 9 3
21 6 26 6 6 0 8 4 5 8 -2 4 5 9 17 9 17 2 18 0 7 -7 -8 -5 -12 -12 -8 -15 11
-11 78 -13 78 -3 0 6 8 4 17 -3 12 -10 14 -10 9 -1 -10 17 14 24 72 23 26 0
65 -1 87 -1 22 -1 41 4 43 10 2 5 13 10 24 10 10 0 25 6 33 13 11 11 10 15 -4
24 -10 6 -29 9 -44 6 -30 -6 -34 6 -14 37 10 17 9 22 -3 30 -9 6 -16 6 -18 0
-2 -6 -13 -10 -23 -10 -11 0 -17 -4 -14 -10 11 -17 -14 -11 -33 8 -10 10 -24
16 -31 14 -8 -3 -12 1 -9 9 3 8 12 13 20 11 18 -3 20 28 3 40 -6 5 -5 8 3 8 7
0 17 -10 22 -22 5 -13 9 -17 9 -9 1 10 9 12 31 8 35 -8 51 11 25 30 -11 7 -14
13 -8 13 5 0 18 -9 28 -20 10 -11 24 -20 31 -20 7 0 15 -6 17 -12 4 -10 6 -10
6 0 1 8 -8 16 -19 19 -11 3 -20 9 -20 15 0 5 8 4 19 -2 31 -16 64 -13 57 6 -4
11 1 18 14 21 11 3 20 10 20 15 0 15 -63 68 -73 61 -16 -10 -57 -12 -57 -3 0
5 6 10 13 13 6 2 9 8 5 11 -3 4 -16 -2 -29 -15 -14 -14 -20 -17 -16 -7 8 22
-3 31 -17 14 -7 -9 -18 -11 -31 -6 -17 7 -17 9 -2 9 9 1 17 5 17 9 0 5 12 15
26 22 22 12 27 12 34 0 7 -11 9 -10 8 7 -2 14 -7 19 -18 15 -11 -3 -12 -2 -4
7 8 8 21 5 55 -13 24 -13 43 -28 42 -33 -1 -5 3 -10 10 -10 7 0 21 -4 31 -9
16 -6 18 -4 13 10 -6 15 -3 15 21 -3 16 -11 35 -28 43 -38 9 -12 5 -10 -15 5
-35 27 -56 29 -33 4 10 -10 14 -22 10 -26 -4 -4 -1 -5 7 -2 8 3 24 -1 34 -9
19 -15 19 -15 -4 -40 -12 -13 -26 -23 -29 -20 -4 2 -8 -4 -9 -13 -1 -9 -4 -35
-8 -57 -8 -57 8 -92 53 -110 33 -14 43 -14 110 1 40 9 78 14 85 11 8 -3 6 -6
-4 -6 -10 -1 -18 -5 -18 -10 0 -4 22 -6 50 -3 43 4 55 0 96 -27 26 -17 54 -31
61 -31 8 0 26 -8 40 -17 l27 -18 -26 38 c-14 21 -35 45 -47 53 -12 9 -21 22
-21 31 0 12 -3 13 -14 4 -10 -9 -19 -5 -40 15 -14 15 -26 35 -26 45 0 14 -7
19 -30 19 -18 0 -33 6 -36 15 -4 10 -13 13 -26 9 -12 -3 -24 -1 -28 6 -10 17
-40 5 -40 -15 0 -8 5 -15 10 -15 6 0 10 -5 10 -12 0 -7 12 -24 26 -39 l26 -27
-52 -11 c-74 -16 -97 -14 -114 10 -20 30 -10 52 21 44 14 -3 34 -3 46 1 l22 7
-22 8 c-29 11 -51 76 -31 95 12 13 23 12 81 -6 37 -12 72 -18 77 -15 5 3 11 1
15 -5 3 -5 13 -10 22 -10 11 0 13 6 8 23 -4 12 -7 36 -7 52 1 28 0 29 -13 12
-11 -16 -17 -17 -35 -7 -15 8 -20 8 -16 1 5 -7 1 -9 -8 -5 -9 3 -14 10 -11 15
8 12 -33 31 -48 23 -6 -4 -9 -4 -5 1 4 4 3 14 -4 22 -23 28 6 34 67 13 66 -23
68 -23 61 -11 -3 4 -26 14 -51 21 -51 14 -55 21 -21 43 21 14 25 14 40 -1 22
-22 20 -4 -4 44 -11 22 -19 31 -20 22 0 -10 -6 -18 -12 -18 -10 0 -10 -2 0 -8
19 -13 -30 -50 -61 -47 -40 5 -68 16 -62 25 3 5 -4 7 -15 5 -21 -4 -28 19 -9
31 6 3 20 20 31 38 11 17 18 23 15 14 -4 -10 -1 -20 4 -24 7 -4 10 3 9 17 -4
47 -1 51 29 47 28 -4 29 -3 23 31 -3 20 -14 44 -25 54 -11 9 -15 17 -8 17 14
0 8 25 -15 74 -8 16 -14 34 -14 40 0 6 -7 24 -15 39 -19 37 -22 97 -6 135 11
27 11 35 0 48 -12 14 -14 14 -21 -3 -5 -11 -7 2 -5 34 4 46 1 55 -19 67 -12 9
-25 29 -29 47 -12 55 -53 137 -77 153 -12 9 -37 16 -54 16 -32 0 -44 13 -44
48 0 9 -7 36 -16 59 l-17 43 -216 -3 c-119 -1 -222 2 -229 6 -9 7 -9 11 2 23
8 8 19 14 23 13 4 -1 10 0 13 1 10 4 60 7 210 15 85 4 156 9 158 10 2 2 -4 17
-13 35 -10 20 -22 30 -31 26 -8 -3 -14 -1 -14 3 0 11 -19 9 -37 -2 -8 -5 -13
-3 -13 5 0 8 -3 9 -8 3 -4 -6 -72 -11 -162 -12 -85 0 -273 -3 -417 -5 -212 -4
-263 -2 -267 9 -3 7 -1 13 4 13 6 0 10 -6 10 -12 0 -9 4 -8 10 2 5 8 10 10 10
3 0 -13 41 -5 52 11 5 7 8 7 8 -2 0 -7 4 -10 10 -7 9 6 73 12 200 20 117 7
246 16 275 20 126 17 217 27 258 27 20 -1 37 2 37 4 0 3 -14 26 -31 51 -32 46
-69 138 -69 171 0 24 -53 31 -192 25 -105 -4 -141 10 -56 23 64 9 83 10 176
12 l72 2 0 61 0 61 -101 96 -101 96 7 86 c8 98 22 153 59 230 15 30 34 82 42
115 14 54 48 196 61 251 4 17 -2 24 -27 32 -25 9 -32 9 -37 -3 -5 -14 -47 -14
-61 -1 -3 3 -12 1 -19 -6 -11 -9 -16 -9 -22 1 -6 10 -12 9 -25 -4 -9 -9 -16
-13 -16 -9 0 3 -7 1 -15 -6 -9 -7 -15 -8 -15 -2 0 14 -52 10 -68 -5 -9 -9 -19
-10 -31 -3 -10 5 -28 6 -40 3 -14 -3 -26 -1 -31 7 -4 7 -13 9 -19 6 -6 -4 -9
-12 -6 -17 3 -5 -1 -6 -9 -3 -9 3 -16 10 -16 15 0 5 -21 9 -46 9 -25 0 -43 -4
-40 -8 3 -5 -17 -8 -44 -9 -27 0 -47 4 -44 9 3 5 -7 6 -23 2 -15 -4 -46 -6
-68 -5 -22 2 -52 3 -66 4 -17 1 -25 7 -22 15 4 8 -1 10 -13 5 -17 -6 -17 -5
-5 10 17 22 10 22 -11 1z m-28 -28 c0 -2 -9 -6 -20 -9 -11 -3 -18 -1 -14 4 5
9 34 13 34 5z m-440 -31 c0 -8 -4 -15 -8 -15 -5 0 -9 7 -9 15 0 8 4 15 9 15 4
0 8 -7 8 -15z m210 11 c0 -3 -4 -8 -10 -11 -5 -3 -10 -1 -10 4 0 6 5 11 10 11
6 0 10 -2 10 -4z m40 -6 c0 -5 -5 -10 -11 -10 -5 0 -7 5 -4 10 3 6 8 10 11 10
2 0 4 -4 4 -10z m-135 -20 c8 -13 -25 -13 -45 0 -12 8 -9 10 12 10 15 0 30 -4
33 -10z m355 -30 c0 -5 -8 -10 -17 -10 -15 0 -16 2 -3 10 19 12 20 12 20 0z
m-105 -928 c3 -8 0 -10 -7 -6 -7 4 -31 7 -54 5 -23 -1 -45 2 -48 7 -3 5 19 9
49 8 36 0 56 -5 60 -14z m-125 -1 c0 -5 -15 -9 -34 -8 -19 0 -33 5 -30 9 7 11
64 10 64 -1z m60 -309 c0 -17 -13 -21 -33 -11 -14 8 -21 8 -26 0 -4 -5 -17 -8
-29 -4 -12 3 -20 8 -18 12 6 10 106 12 106 3z m240 -64 c0 -13 -23 -5 -28 10
-2 7 2 10 12 6 9 -3 16 -11 16 -16z m551 -96 c-7 -2 -18 1 -23 6 -8 8 -4 9 13
5 13 -4 18 -8 10 -11z m-571 -646 c0 -8 -7 -16 -15 -20 -17 -6 -18 -4 -9 18 8
20 24 21 24 2z m1260 -195 c10 0 9 3 -5 9 -15 7 -10 9 23 9 27 1 42 -3 42 -11
0 -7 12 -23 28 -36 15 -13 20 -20 12 -16 -21 12 -41 14 -35 4 3 -5 -1 -11 -7
-14 -7 -4 -3 -4 9 -2 31 6 38 -9 14 -33 -11 -11 -17 -21 -15 -24 3 -2 -2 -7
-11 -11 -9 -3 -13 -2 -10 4 3 5 -10 6 -31 3 l-36 -6 7 33 c5 23 4 30 -4 26 -6
-4 -9 -11 -7 -15 11 -17 -15 -35 -49 -34 -56 2 -106 13 -100 23 3 5 1 11 -4
14 -5 4 -12 2 -16 -4 -3 -5 -15 -10 -27 -10 -17 0 -18 2 -8 15 37 45 92 77
136 80 25 2 49 6 52 10 3 3 10 1 16 -5 5 -5 17 -10 26 -9z m-224 -6 c-1 -8 -8
-21 -14 -27 -7 -7 -12 -16 -12 -21 0 -5 16 8 35 28 19 20 39 34 45 30 10 -6
-64 -70 -82 -70 -4 0 -13 -6 -19 -12 -15 -15 -43 -17 -34 -3 3 6 1 10 -6 10
-6 0 -9 -8 -6 -20 3 -11 1 -20 -4 -20 -5 0 -9 5 -9 10 0 6 -7 10 -16 10 -8 0
-12 5 -9 10 7 11 -8 14 -19 3 -4 -4 -19 -8 -34 -8 -15 0 -33 -5 -41 -9 -11 -7
-13 -5 -7 10 6 15 4 16 -5 7 -8 -8 -19 -9 -36 -2 -13 5 -75 6 -136 3 -177 -9
-389 -13 -429 -7 -29 4 -38 10 -38 24 0 21 16 26 23 7 3 -7 6 -3 6 10 1 12 6
22 12 22 5 0 7 -5 3 -11 -4 -7 0 -9 12 -6 55 15 74 17 74 7 0 -6 -5 -8 -11 -4
-7 4 -10 -1 -7 -12 2 -15 11 -19 38 -17 58 3 80 7 80 14 0 9 103 5 118 -4 8
-5 12 -3 12 7 0 8 5 18 10 21 16 10 50 -5 50 -22 0 -11 5 -9 20 8 10 13 19 19
20 13 0 -14 99 -8 150 8 19 6 87 14 150 18 63 4 116 8 117 8 1 1 0 -5 -1 -13z
m-956 -49 c0 -3 -4 -8 -10 -11 -5 -3 -10 -1 -10 4 0 6 5 11 10 11 6 0 10 -2
10 -4z m210 -87 c0 -4 -4 -9 -10 -11 -5 -1 -7 -14 -3 -26 5 -20 11 -23 34 -20
16 3 29 1 29 -3 0 -5 12 -4 26 1 20 8 25 7 22 -2 -3 -7 -17 -14 -31 -16 -37
-5 -34 -19 3 -16 22 1 30 -2 30 -14 0 -15 2 -15 10 -2 8 12 10 10 10 -8 0 -13
-4 -20 -10 -17 -6 3 -10 -4 -10 -17 0 -17 -3 -19 -9 -9 -5 7 -6 23 -3 35 5 19
4 20 -12 7 -10 -8 -15 -22 -13 -32 7 -25 -2 -33 -66 -59 -69 -28 -70 -27 -87
67 -6 34 -13 69 -16 77 -3 8 2 16 13 19 16 4 15 6 -4 12 -13 4 -23 14 -23 22
0 9 6 13 15 10 8 -4 16 -3 19 1 6 9 86 10 86 1z m-396 -56 c14 -28 22 -54 19
-56 -2 -3 0 -8 6 -12 16 -9 13 8 -9 60 -24 56 -26 72 -6 56 16 -14 38 -88 40
-138 0 -17 4 -29 9 -26 4 2 7 -1 7 -8 0 -7 3 -9 6 -6 4 4 1 27 -6 52 -25 88
-2 55 30 -45 24 -70 30 -104 23 -111 -7 -7 -14 5 -23 41 -9 36 -15 48 -21 39
-7 -11 -9 -11 -9 -1 0 7 -4 11 -9 8 -4 -3 -34 13 -65 35 -31 22 -56 36 -56 32
0 -14 36 -41 90 -68 31 -16 54 -35 60 -51 14 -35 13 -40 -7 -41 -39 -2 -69
-14 -80 -30 -23 -33 -47 -53 -55 -45 -4 4 -12 25 -17 47 l-10 40 5 -47 c4 -41
3 -47 -10 -42 -9 4 -17 19 -17 38 -2 29 -2 28 -9 -9 -7 -40 -7 -40 -9 14 -1
50 0 52 17 40 15 -12 16 -12 5 1 -13 17 -14 60 -1 60 4 0 9 -10 9 -22 l2 -23
4 23 c2 12 7 22 11 22 4 0 8 11 8 25 1 15 -2 22 -9 18 -6 -4 -8 4 -5 21 3 15
1 26 -6 27 -6 0 -5 3 2 6 9 3 10 9 2 18 -13 16 -40 106 -30 100 5 -3 11 -1 14
4 3 4 22 8 41 7 33 -1 37 -5 59 -53z m253 45 c0 -7 3 -32 8 -56 5 -30 11 -40
17 -30 5 8 6 -5 3 -32 -3 -29 -2 -36 3 -21 7 22 9 18 20 -29 7 -29 11 -54 10
-55 -2 -1 -22 -7 -44 -12 l-41 -10 -1 115 c-1 70 3 121 10 129 13 16 16 16 15
1z m1138 -22 c-11 -17 -22 -22 -40 -18 -14 2 -25 9 -25 14 0 5 -3 7 -7 5 -5
-3 -21 1 -38 8 -27 13 -28 14 -5 11 14 -2 45 0 70 3 57 9 63 6 45 -23z m-1555
4 c0 -11 -7 -20 -15 -20 -18 0 -19 12 -3 28 16 16 18 15 18 -8z m219 -30 c0
-9 -4 -8 -9 5 -5 11 -9 27 -9 35 0 9 4 8 9 -5 5 -11 9 -27 9 -35z m35 28 c-10
-12 -13 -18 -6 -14 9 5 12 -4 11 -36 -1 -47 -2 -46 -23 25 l-14 47 26 0 c25 0
25 0 6 -22z m1237 -36 c-7 -2 -18 1 -23 6 -8 8 -4 9 13 5 13 -4 18 -8 10 -11z
m39 -6 c0 -3 -4 -8 -10 -11 -5 -3 -10 -1 -10 4 0 6 5 11 10 11 6 0 10 -2 10
-4z m79 -27 c41 -12 52 -24 29 -32 -15 -5 -78 23 -78 35 0 4 -7 4 -17 1 -11
-4 -14 -3 -9 6 5 7 14 10 21 7 7 -2 31 -10 54 -17z m-1312 -11 c-3 -8 -6 -5
-6 6 -1 11 2 17 5 13 3 -3 4 -12 1 -19z m518 12 c3 -6 -4 -10 -17 -10 -18 0
-20 2 -8 10 19 12 18 12 25 0z m450 0 c3 -5 2 -10 -4 -10 -5 0 -13 5 -16 10
-3 6 -2 10 4 10 5 0 13 -4 16 -10z m-925 -30 c0 -5 -2 -10 -4 -10 -3 0 -8 5
-11 10 -3 6 -1 10 4 10 6 0 11 -4 11 -10z m-34 -30 c17 0 23 -4 18 -12 -5 -7
-2 -9 8 -5 12 4 15 0 11 -16 -4 -16 -2 -18 5 -8 8 11 11 9 17 -8 4 -12 2 -28
-5 -36 -6 -8 -9 -19 -5 -25 3 -5 1 -10 -4 -10 -6 0 -11 8 -12 18 -1 11 -4 9
-9 -8 -8 -24 -8 -24 -9 -2 -1 12 -7 22 -14 22 -12 0 -26 34 -43 105 -5 18 -4
18 6 3 6 -10 22 -18 36 -18z m-388 0 c-7 -10 -14 -17 -17 -15 -4 4 18 35 25
35 2 0 -1 -9 -8 -20z m64 -2 c-7 -7 -12 -8 -12 -2 0 14 12 26 19 19 2 -3 -1
-11 -7 -17z m1612 -27 c-2 -3 -12 3 -22 13 -16 17 -16 18 5 5 12 -7 20 -15 17
-18z m-1646 -3 c-1 -13 2 -38 6 -55 5 -22 4 -33 -3 -33 -6 0 -11 11 -11 24 0
13 -3 38 -6 55 -4 20 -3 31 5 31 6 0 10 -10 9 -22z m1387 3 c-3 -6 -11 -11
-16 -11 -5 0 -4 6 3 14 14 16 24 13 13 -3z m-1327 -91 c-1 -84 -3 -97 -14 -82
-16 21 -18 93 -3 145 5 20 12 37 14 37 2 0 3 -45 3 -100z m1413 49 c-6 -16
-10 -18 -10 -7 -1 22 12 55 16 42 2 -6 -1 -22 -6 -35z m-581 27 c0 -3 -4 -8
-10 -11 -5 -3 -10 -1 -10 4 0 6 5 11 10 11 6 0 10 -2 10 -4z m873 -38 c22 -11
37 -21 35 -23 -7 -8 -112 32 -116 44 -5 16 24 8 81 -21z m-1801 -8 c3 -16 1
-30 -4 -30 -4 0 -8 14 -8 30 0 17 2 30 4 30 2 0 6 -13 8 -30z m1483 20 c3 -5
2 -10 -4 -10 -5 0 -13 5 -16 10 -3 6 -2 10 4 10 5 0 13 -4 16 -10z m-455 -20
c0 -5 -4 -10 -10 -10 -5 0 -10 5 -10 10 0 6 5 10 10 10 6 0 10 -4 10 -10z
m221 -5 c0 -5 2 -20 5 -32 4 -24 -3 -27 -30 -17 -9 3 -13 11 -9 17 4 6 0 8 -8
5 -39 -15 -59 -19 -58 -11 4 24 -4 33 -28 34 l-28 1 25 7 c37 11 130 8 131 -4z
m64 -15 c3 -5 1 -10 -4 -10 -6 0 -11 5 -11 10 0 6 2 10 4 10 3 0 8 -4 11 -10z
m-25 -30 c0 -5 -2 -10 -4 -10 -3 0 -8 5 -11 10 -3 6 -1 10 4 10 6 0 11 -4 11
-10z m-1250 -35 c5 3 12 0 16 -6 5 -8 3 -9 -6 -4 -10 6 -12 4 -7 -8 7 -19 -4
-22 -20 -6 -6 6 -9 19 -5 27 4 11 7 12 10 4 2 -7 8 -10 12 -7z m-40 -5 c0 -5
-4 -10 -10 -10 -5 0 -10 5 -10 10 0 6 5 10 10 10 6 0 10 -4 10 -10z m1054 -16
c7 -19 2 -18 -19 6 -16 17 -16 20 -3 15 9 -4 19 -13 22 -21z m-784 6 c0 -5 -5
-10 -11 -10 -5 0 -7 5 -4 10 3 6 8 10 11 10 2 0 4 -4 4 -10z m1150 1 c0 -5 -7
-14 -15 -21 -12 -10 -19 -10 -27 -2 -9 9 -8 12 5 12 9 0 17 5 17 10 0 6 5 10
10 10 6 0 10 -4 10 -9z m-287 -8 c-7 -2 -19 -2 -25 0 -7 3 -2 5 12 5 14 0 19
-2 13 -5z m207 -13 c8 -5 11 -10 5 -10 -5 0 -17 5 -25 10 -8 5 -10 10 -5 10 6
0 17 -5 25 -10z m-1320 -20 c0 -5 -4 -10 -10 -10 -5 0 -10 5 -10 10 0 6 5 10
10 10 6 0 10 -4 10 -10z"/>
<path d="M1790 1955 c-14 -16 -3 -20 19 -6 8 5 9 11 3 15 -5 3 -15 -1 -22 -9z"/>
<path d="M1925 1950 c-16 -7 -17 -9 -3 -9 9 -1 20 4 23 9 7 11 7 11 -20 0z"/>
<path d="M1740 1935 c0 -8 7 -15 15 -15 8 0 15 4 15 9 0 5 -7 11 -15 15 -9 3
-15 0 -15 -9z"/>
<path d="M1875 1940 c3 -5 8 -10 11 -10 2 0 4 5 4 10 0 6 -5 10 -11 10 -5 0
-7 -4 -4 -10z"/>
<path d="M1710 1930 c0 -5 5 -10 10 -10 6 0 10 5 10 10 0 6 -4 10 -10 10 -5 0
-10 -4 -10 -10z"/>
<path d="M825 1960 c3 -5 11 -10 16 -10 6 0 7 5 4 10 -3 6 -11 10 -16 10 -6 0
-7 -4 -4 -10z"/>
<path d="M828 1863 c6 -2 9 -10 6 -15 -4 -7 -2 -8 5 -4 13 9 5 26 -12 25 -9 0
-8 -2 1 -6z"/>
<path d="M442 1540 c0 -14 2 -19 5 -12 2 6 2 18 0 25 -3 6 -5 1 -5 -13z"/>
<path d="M2723 4193 c-29 -6 -29 -12 2 -41 22 -21 27 -22 67 -11 24 7 47 16
53 21 5 4 25 8 45 8 25 1 31 3 20 9 -18 11 -156 21 -187 14z"/>
<path d="M2965 4160 c4 -6 11 -8 16 -5 14 9 11 15 -7 15 -8 0 -12 -5 -9 -10z"/>
<path d="M2278 3733 c6 -2 18 -2 25 0 6 3 1 5 -13 5 -14 0 -19 -2 -12 -5z"/>
<path d="M2500 3691 c0 -14 9 -21 31 -26 40 -9 47 0 18 24 -31 26 -49 26 -49
2z"/>
<path d="M2715 3690 c-3 -5 3 -10 15 -10 12 0 18 5 15 10 -3 6 -10 10 -15 10
-5 0 -12 -4 -15 -10z"/>
<path d="M4020 3533 c10 -27 35 -79 54 -117 20 -39 36 -76 36 -82 0 -7 6 -17
13 -21 6 -4 17 -15 22 -25 51 -84 97 -139 139 -166 26 -18 54 -32 61 -32 6 0
20 -9 30 -20 10 -11 26 -20 35 -20 10 0 23 -7 30 -15 7 -8 16 -13 20 -10 4 3
10 -2 14 -10 3 -8 17 -15 32 -15 15 0 32 -7 38 -16 8 -10 29 -16 59 -17 47 -2
62 7 30 17 -10 3 -41 27 -69 53 -28 27 -82 75 -120 108 -80 69 -226 212 -273
270 -51 62 -153 165 -162 165 -5 0 0 -21 11 -47z"/>
<path d="M5832 3408 c-6 -6 -12 -17 -12 -23 0 -6 -22 -37 -50 -70 -27 -33 -50
-64 -50 -69 0 -5 -8 -15 -17 -22 -17 -12 -17 -14 -1 -26 9 -7 18 -22 20 -33 2
-11 11 -21 19 -23 19 -4 41 49 32 76 -4 12 0 11 17 -6 21 -22 21 -24 4 -43
-16 -17 -16 -20 -1 -37 11 -12 13 -22 7 -32 -13 -21 -12 -30 3 -30 30 0 53
113 25 122 -6 2 -13 17 -14 34 -1 16 -5 41 -9 57 -6 22 -4 27 10 27 13 0 16 6
11 23 -3 14 1 33 10 45 18 26 15 49 -4 30z"/>
<path d="M2885 3370 c-3 -5 -1 -10 4 -10 6 0 11 5 11 10 0 6 -2 10 -4 10 -3 0
-8 -4 -11 -10z"/>
<path d="M5860 3260 c0 -5 5 -10 11 -10 5 0 7 5 4 10 -3 6 -8 10 -11 10 -2 0
-4 -4 -4 -10z"/>
<path d="M5850 3195 c0 -9 6 -12 15 -9 8 4 15 10 15 15 0 5 -7 9 -15 9 -8 0
-15 -7 -15 -15z"/>
<path d="M5661 3184 c0 -11 3 -14 6 -6 3 7 2 16 -1 19 -3 4 -6 -2 -5 -13z"/>
<path d="M5672 3143 c2 -10 10 -18 18 -18 8 0 16 8 18 18 2 12 -3 17 -18 17
-15 0 -20 -5 -18 -17z"/>
<path d="M5646 3101 c-4 -7 -5 -15 -2 -18 9 -9 19 4 14 18 -4 11 -6 11 -12 0z"/>
<path d="M5720 3070 c0 -22 -4 -28 -15 -24 -19 8 -20 -29 -1 -45 7 -6 16 -30
20 -52 8 -48 26 -43 26 8 0 26 5 36 20 40 28 7 25 22 -6 33 -17 7 -24 15 -20
25 6 18 -2 45 -15 45 -5 0 -9 -13 -9 -30z"/>
<path d="M5840 3061 c0 -23 2 -41 4 -41 8 0 12 71 4 76 -4 3 -8 -13 -8 -35z"/>
<path d="M1348 3013 c7 -3 16 -2 19 1 4 3 -2 6 -13 5 -11 0 -14 -3 -6 -6z"/>
<path d="M4383 2813 c-21 -7 -15 -38 12 -67 15 -16 25 -39 25 -57 0 -17 6 -32
15 -35 17 -7 21 -34 5 -34 -7 0 -7 -6 0 -20 6 -11 20 -20 31 -20 17 0 19 -5
14 -34 -7 -37 14 -89 39 -99 8 -3 24 -26 35 -50 11 -24 32 -52 46 -61 14 -9
25 -24 25 -34 0 -9 11 -28 25 -40 18 -17 23 -31 19 -47 -3 -13 -1 -26 5 -29 6
-4 11 0 11 9 0 9 5 13 11 9 7 -4 6 -11 -4 -22 -30 -29 -153 18 -282 108 -124
85 -172 116 -223 140 -46 22 -52 28 -47 48 4 15 0 24 -9 28 -9 3 -18 14 -21
24 -15 48 -117 28 -180 -35 -23 -24 -57 -51 -76 -60 -19 -10 -50 -31 -70 -46
-52 -41 -85 -38 -187 18 -48 25 -88 47 -90 49 -2 1 1 11 6 21 12 22 8 30 -32
61 -40 31 -91 29 -112 -3 -9 -14 -14 -34 -11 -44 5 -20 -10 -31 -40 -31 -33 0
-190 -83 -272 -145 -97 -72 -214 -131 -278 -141 -33 -5 -43 -3 -43 7 0 8 10
19 23 24 12 6 22 17 23 25 1 27 16 50 33 50 15 0 41 41 41 66 0 7 10 14 23 16
15 2 25 13 31 35 5 17 20 36 32 42 13 5 30 24 39 41 8 16 20 30 26 30 6 0 8 4
4 9 -3 5 4 16 16 24 11 8 22 22 23 31 1 9 13 24 25 32 20 15 22 22 16 63 -9
61 -11 63 -46 46 -23 -13 -28 -20 -23 -39 5 -20 0 -25 -27 -35 -27 -9 -30 -13
-19 -26 7 -8 10 -16 6 -16 -3 -1 -10 -3 -16 -4 -5 -1 -14 -3 -20 -4 -5 0 -10
-8 -10 -16 0 -8 -4 -15 -8 -15 -11 0 -43 -31 -62 -60 -8 -13 -27 -36 -42 -52
-16 -16 -28 -39 -28 -51 0 -13 -9 -26 -24 -33 -22 -10 -28 -8 -57 22 -92 95
-217 79 -315 -42 -37 -45 -39 -50 -38 -116 4 -164 142 -301 369 -365 82 -23
113 -25 338 -30 209 -5 247 -3 242 8 -4 10 9 18 46 26 99 24 208 86 287 164
l72 71 79 -75 c62 -59 101 -86 175 -122 53 -26 96 -51 96 -57 0 -28 -23 -49
-53 -48 -18 0 -55 -2 -84 -6 -41 -5 -55 -3 -68 10 -16 16 -40 13 -30 -4 6 -10
-24 -22 -36 -14 -6 4 -6 11 1 19 9 10 6 16 -10 25 -27 14 -54 5 -46 -15 7 -18
-8 -18 -148 -5 -54 5 -104 14 -110 19 -6 5 -28 12 -48 16 -31 6 -38 4 -38 -9
0 -18 49 -34 220 -70 159 -34 206 -34 615 3 55 4 111 6 125 2 14 -3 58 -5 98
-3 70 2 76 0 114 -29 22 -18 51 -49 64 -70 25 -40 59 -55 47 -21 -13 37 -87
142 -99 142 -8 0 -14 7 -14 15 0 8 -7 15 -17 15 -37 0 1 12 108 34 153 32 229
68 305 144 78 78 107 136 112 227 l4 70 -43 49 c-96 109 -171 130 -274 76 -65
-34 -65 -34 -65 -19 0 20 -63 109 -81 114 -10 3 -28 27 -40 53 -13 26 -33 58
-46 72 -13 14 -30 39 -38 57 -10 21 -23 33 -35 33 -11 0 -20 7 -20 15 0 24
-34 72 -47 68z m-1720 -505 c32 -12 36 -44 7 -53 -11 -3 -20 -12 -20 -19 0
-20 -37 -49 -52 -40 -58 33 -73 79 -37 115 22 22 42 21 102 -3z m2205 0 c19
-19 14 -59 -10 -85 -25 -26 -58 -31 -58 -7 0 8 -12 30 -26 49 -24 31 -24 34
-7 44 25 14 86 14 101 -1z m-698 -463 c36 -8 89 -14 118 -15 29 0 52 -5 52
-10 0 -11 -106 -7 -117 4 -3 3 -12 1 -20 -5 -7 -6 -22 -9 -34 -6 -12 3 -29 1
-39 -5 -25 -16 -50 -3 -50 27 0 29 3 29 90 10z"/>
<path d="M4350 2670 c0 -18 4 -29 10 -25 6 3 10 15 10 25 0 10 -4 22 -10 25
-6 4 -10 -7 -10 -25z"/>
<path d="M4390 2600 c0 -24 15 -27 24 -4 9 22 8 24 -9 24 -8 0 -15 -9 -15 -20z"/>
<path d="M5528 2339 c-8 -23 5 -90 16 -86 14 4 20 41 12 73 -7 25 -22 32 -28
13z"/>
<path d="M5654 2073 c-8 -12 -14 -14 -30 -5 -17 9 -19 7 -18 -11 1 -12 6 -33
10 -46 l7 -23 14 23 c13 23 14 22 8 -15 l-6 -39 32 7 c17 3 35 6 40 6 5 0 9
16 9 36 0 36 -1 36 -31 30 -24 -5 -29 -3 -21 7 5 6 7 20 3 29 -6 16 -7 16 -17
1z m56 -53 c0 -5 -2 -10 -4 -10 -3 0 -8 5 -11 10 -3 6 -1 10 4 10 6 0 11 -4
11 -10z"/>
<path d="M5695 2080 c4 -6 11 -8 16 -5 5 4 9 1 9 -5 0 -6 5 -8 11 -4 8 4 7 9
-2 15 -19 12 -42 11 -34 -1z"/>
<path d="M6155 2000 c-4 -6 -16 -9 -27 -7 -14 4 -25 -4 -41 -29 -12 -19 -27
-32 -32 -30 -6 2 -12 -5 -12 -15 -1 -12 5 -19 17 -19 26 0 51 11 45 20 -3 4
11 15 31 25 19 9 38 23 41 31 7 20 -12 40 -22 24z"/>
<path d="M6275 1970 c-19 -8 -19 -9 2 -9 12 -1 29 -4 37 -7 12 -5 15 -2 10 10
-7 18 -19 19 -49 6z"/>
<path d="M5617 1943 c-18 -5 -18 -5 0 -18 20 -15 33 -11 33 11 0 14 -2 15 -33
7z"/>
<path d="M3565 1902 c-26 -4 -27 -5 -10 -12 23 -8 55 -2 55 11 0 5 -3 8 -7 8
-5 -1 -21 -4 -38 -7z"/>
<path d="M3886 1903 c-4 -5 -40 -9 -79 -9 -93 -3 -95 -3 -75 -15 9 -5 55 -12
101 -14 72 -5 86 -3 91 11 10 27 -18 47 -38 27z"/>
<path d="M2010 1882 c0 -5 7 -9 15 -9 8 0 15 4 15 9 0 4 -7 8 -15 8 -8 0 -15
-4 -15 -8z"/>
<path d="M4846 1863 c-2 -10 -8 -34 -11 -53 l-7 -35 27 27 c22 20 26 32 21 52
-7 30 -22 34 -30 9z"/>
<path d="M3562 1849 c2 -7 10 -15 17 -17 8 -3 12 1 9 9 -2 7 -10 15 -17 17 -8
3 -12 -1 -9 -9z"/>
<path d="M3348 1833 c7 -3 16 -2 19 1 4 3 -2 6 -13 5 -11 0 -14 -3 -6 -6z"/>
<path d="M5435 1821 c-3 -5 -1 -12 4 -15 5 -3 11 1 15 9 6 16 -9 21 -19 6z"/>
<path d="M170 1790 c-25 -16 -50 -30 -57 -30 -6 0 -27 -14 -45 -31 l-33 -31
50 28 c67 36 149 94 133 94 -2 0 -23 -14 -48 -30z"/>
<path d="M1957 1808 c-7 -5 -2 -8 15 -8 15 0 29 4 32 8 6 10 -31 10 -47 0z"/>
<path d="M5866 1781 c-4 -7 -5 -15 -2 -18 9 -9 19 4 14 18 -4 11 -6 11 -12 0z"/>
<path d="M1698 1773 c6 -2 18 -2 25 0 6 3 1 5 -13 5 -14 0 -19 -2 -12 -5z"/>
<path d="M0 1759 c0 -5 5 -7 10 -4 5 3 10 8 10 11 0 2 -4 4 -10 4 -5 0 -10 -5
-10 -11z"/>
<path d="M5400 1719 c0 -5 5 -7 10 -4 6 3 10 8 10 11 0 2 -4 4 -10 4 -5 0 -10
-5 -10 -11z"/>
<path d="M10 1713 c8 -3 7 -9 -1 -19 -10 -12 -9 -13 5 -8 18 7 17 26 -2 30 -7
1 -8 0 -2 -3z"/>
<path d="M5391 1684 c0 -11 3 -14 6 -6 3 7 2 16 -1 19 -3 4 -6 -2 -5 -13z"/>
<path d="M1830 1673 c1 -18 18 -35 24 -24 4 6 2 11 -4 11 -6 0 -8 5 -5 10 3 6
1 10 -4 10 -6 0 -11 -3 -11 -7z"/>
<path d="M6490 1665 l-25 -14 34 -1 c33 0 34 -1 15 -15 -18 -13 -16 -14 24
-15 26 0 41 4 37 10 -3 6 -1 10 4 10 6 0 11 5 11 10 0 14 -37 12 -43 -2 -4
-10 -6 -10 -6 0 -1 6 -8 12 -17 12 -8 0 -12 5 -9 10 8 13 5 12 -25 -5z"/>
<path d="M7178 1643 c7 -3 16 -2 19 1 4 3 -2 6 -13 5 -11 0 -14 -3 -6 -6z"/>
<path d="M6598 1613 c7 -3 16 -2 19 1 4 3 -2 6 -13 5 -11 0 -14 -3 -6 -6z"/>
<path d="M1177 1596 c-6 -14 21 -32 31 -21 3 3 0 5 -7 5 -8 0 -11 7 -7 15 3 8
1 15 -3 15 -5 0 -11 -6 -14 -14z"/>
<path d="M5351 1564 c0 -11 3 -14 6 -6 3 7 2 16 -1 19 -3 4 -6 -2 -5 -13z"/>
<path d="M1700 1540 c0 -5 5 -10 10 -10 6 0 10 5 10 10 0 6 -4 10 -10 10 -5 0
-10 -4 -10 -10z"/>
<path d="M2053 1245 c-9 -10 -34 -13 -87 -11 -43 1 -81 -3 -90 -10 -10 -7 -41
-9 -83 -6 -99 6 -157 3 -179 -10 -16 -11 -96 13 -91 27 6 14 -41 13 -64 -1
-45 -28 -117 -42 -135 -24 -6 6 -24 5 -49 -4 -22 -7 -53 -16 -69 -20 -27 -7
-28 -6 -15 10 13 16 12 17 -16 10 -16 -3 -50 -9 -75 -11 -170 -19 -213 -28
-194 -39 16 -9 4 -12 -61 -17 l-80 -5 77 -2 c44 -1 80 2 83 8 4 6 16 8 28 4
22 -6 22 -6 2 10 -19 15 -19 15 15 16 25 0 31 -3 20 -10 -30 -19 22 -24 71 -7
38 14 57 15 96 7 26 -5 55 -9 63 -7 8 1 15 -2 16 -8 0 -5 13 -13 30 -17 23 -5
19 -6 -21 -6 -27 0 -54 -1 -60 -2 -5 -1 -14 -1 -20 0 -5 1 -30 2 -55 1 -33 -1
-41 1 -30 9 12 8 10 10 -9 10 -13 0 -21 -3 -18 -7 4 -3 3 -11 -3 -18 -7 -8 5
-10 43 -8 37 1 46 0 32 -7 -14 -6 -7 -7 25 -5 25 3 90 8 145 12 55 4 89 9 75
12 -14 4 -26 11 -27 18 -2 10 46 33 71 33 15 0 16 -42 2 -53 -6 -5 2 -6 19 -2
17 3 68 10 115 15 47 5 112 18 145 29 33 11 77 21 99 21 33 0 37 -2 26 -15
-18 -22 9 -29 76 -21 59 7 107 -1 98 -15 -7 -11 14 -11 100 1 38 6 75 15 83
21 7 6 19 9 27 6 10 -4 13 -1 9 9 -3 7 0 14 6 14 6 0 11 -4 11 -10 0 -13 39
-13 93 -1 23 6 55 13 70 16 23 5 26 9 18 19 -6 7 -21 13 -34 12 -12 -1 -36 4
-54 11 -26 10 -37 10 -65 -1 -48 -21 -115 -15 -143 12 -26 25 -45 27 -62 7z
m132 -74 c-3 -6 -11 -11 -17 -11 -6 0 -6 6 2 15 14 17 26 13 15 -4z m-1105 5
c0 -9 -39 -13 -51 -5 -10 6 -4 9 19 9 17 0 32 -2 32 -4z"/>
<path d="M1768 1243 c7 -3 16 -2 19 1 4 3 -2 6 -13 5 -11 0 -14 -3 -6 -6z"/>
<path d="M350 1156 c-47 -7 -96 -9 -109 -6 -23 6 -111 -10 -111 -20 0 -3 51
-5 112 -6 62 0 139 -4 171 -9 46 -6 57 -5 55 5 -2 8 7 14 22 15 73 4 73 4 60
20 -15 18 -72 18 -200 1z"/>
<path d="M718 1163 c-21 -2 -38 -8 -38 -12 0 -11 172 -1 184 10 10 9 -70 10
-146 2z"/>
<path d="M2420 1160 c-13 -8 -12 -10 3 -10 37 0 14 -19 -35 -28 l-53 -10 62
-1 c59 -1 62 -2 66 -28 2 -16 3 -8 2 16 -3 49 -22 75 -45 61z"/>
<path d="M0 1143 c0 -7 11 -13 24 -13 36 0 41 17 6 22 -20 3 -30 0 -30 -9z"/>
<path d="M1123 1143 c9 -2 23 -2 30 0 6 3 -1 5 -18 5 -16 0 -22 -2 -12 -5z"/>
<path d="M2286 1142 c-3 -5 8 -6 25 -4 16 2 29 6 29 8 0 8 -49 4 -54 -4z"/>
<path d="M1898 1133 c-24 -6 -23 -23 1 -23 10 0 21 7 25 15 6 15 4 16 -26 8z"/>
<path d="M664 1119 c-7 -11 27 -11 45 0 9 6 5 9 -13 9 -15 0 -29 -4 -32 -9z"/>
<path d="M250 1112 c0 -6 -8 -13 -17 -15 -10 -3 11 -4 47 -4 36 0 49 2 30 4
-19 3 -41 9 -47 15 -9 7 -13 7 -13 0z"/>
<path d="M618 1113 c6 -2 18 -2 25 0 6 3 1 5 -13 5 -14 0 -19 -2 -12 -5z"/>
<path d="M1650 1110 c-28 -6 -22 -7 30 -8 36 0 74 3 85 8 25 10 -63 10 -115 0z"/>
<path d="M798 1103 c7 -3 16 -2 19 1 4 3 -2 6 -13 5 -11 0 -14 -3 -6 -6z"/>
<path d="M3 1085 c0 -19 7 -19 43 0 l29 15 -36 0 c-25 0 -36 -4 -36 -15z"/>
<path d="M100 1096 c0 -2 8 -10 18 -17 15 -13 16 -12 3 4 -13 16 -21 21 -21
13z"/>
<path d="M400 1089 c0 -5 9 -9 20 -9 11 0 20 2 20 4 0 2 -9 6 -20 9 -11 3 -20
1 -20 -4z"/>
<path d="M908 1093 c7 -3 16 -2 19 1 4 3 -2 6 -13 5 -11 0 -14 -3 -6 -6z"/>
<path d="M1468 1093 c23 -2 61 -2 85 0 23 2 4 4 -43 4 -47 0 -66 -2 -42 -4z"/>
<path d="M477 1083 c18 -2 50 -2 70 0 21 2 7 4 -32 4 -38 0 -55 -2 -38 -4z"/>
<path d="M158 1073 c7 -3 16 -2 19 1 4 3 -2 6 -13 5 -11 0 -14 -3 -6 -6z"/>
<path d="M198 1073 c7 -3 16 -2 19 1 4 3 -2 6 -13 5 -11 0 -14 -3 -6 -6z"/>
<path d="M2013 1063 c15 -2 37 -2 50 0 12 2 0 4 -28 4 -27 0 -38 -2 -22 -4z"/>
<path d="M2153 1063 c9 -2 25 -2 35 0 9 3 1 5 -18 5 -19 0 -27 -2 -17 -5z"/>
<path d="M1028 1043 c28 -2 76 -2 105 0 28 2 5 3 -53 3 -58 0 -81 -1 -52 -3z"/>
<path d="M1478 1043 c7 -3 16 -2 19 1 4 3 -2 6 -13 5 -11 0 -14 -3 -6 -6z"/>
<path d="M2098 1043 c7 -3 16 -2 19 1 4 3 -2 6 -13 5 -11 0 -14 -3 -6 -6z"/>
<path d="M2154 1041 c3 -5 15 -7 26 -4 28 7 25 13 -6 13 -14 0 -23 -4 -20 -9z"/>
<path d="M818 1003 c7 -3 16 -2 19 1 4 3 -2 6 -13 5 -11 0 -14 -3 -6 -6z"/>
<path d="M1086 995 c-3 -8 -1 -15 5 -15 6 0 8 -4 5 -9 -10 -16 91 -23 219 -16
92 6 125 11 129 21 5 12 -4 14 -47 9 -37 -3 -45 -2 -27 4 18 7 4 9 -57 10 -45
1 -89 4 -99 8 -12 4 -15 3 -10 -5 4 -8 0 -12 -11 -13 -10 0 -31 -2 -48 -4 -21
-3 -26 -2 -15 5 8 5 13 10 10 11 -3 0 -15 2 -27 5 -12 2 -23 -2 -27 -11z m154
-9 c0 -2 -13 -9 -30 -15 -16 -5 -30 -6 -30 -1 0 7 10 11 53 19 4 0 7 -1 7 -3z"/>
<path d="M715 979 c4 -6 13 -8 21 -5 7 3 16 1 19 -4 8 -13 55 -13 55 -1 0 5 8
12 18 14 13 4 12 5 -5 6 -12 0 -25 -4 -28 -9 -4 -7 -12 -7 -25 0 -25 13 -63
13 -55 -1z"/>
<path d="M878 978 c-3 -7 -17 -12 -31 -10 -15 1 -27 -2 -27 -8 0 -5 25 -7 58
-4 31 3 65 5 75 5 10 0 17 6 14 12 -5 15 -57 22 -57 8 0 -6 -5 -11 -11 -11 -5
0 -7 5 -4 10 3 6 2 10 -4 10 -5 0 -11 -6 -13 -12z"/>
<path d="M1056 978 c5 -8 0 -9 -14 -6 -12 4 -22 2 -22 -3 0 -5 11 -9 25 -9 16
0 25 6 25 15 0 8 -5 15 -11 15 -5 0 -7 -5 -3 -12z"/>
<path d="M1551 981 c-9 -6 9 -9 52 -7 36 1 69 5 73 9 11 10 -108 8 -125 -2z"/>
<path d="M1698 983 c6 -2 18 -2 25 0 6 3 1 5 -13 5 -14 0 -19 -2 -12 -5z"/>
<path d="M1745 980 c6 -10 122 -12 129 -2 2 4 -26 8 -64 9 -38 0 -68 -3 -65
-7z"/>
<path d="M1938 983 c6 -2 18 -2 25 0 6 3 1 5 -13 5 -14 0 -19 -2 -12 -5z"/>
<path d="M2310 980 c-11 -7 -2 -10 33 -10 30 0 46 4 42 10 -8 13 -55 13 -75 0z"/>
<path d="M2266 972 c-3 -5 1 -9 9 -9 8 0 12 4 9 9 -3 4 -7 8 -9 8 -2 0 -6 -4
-9 -8z"/>
</g>
</svg>
